<svg width="37" height="50" viewBox="0 0 37 50" fill="none" xmlns="http://www.w3.org/2000/svg">
<g clip-path="url(#clip0_41_2)">
<path d="M17.336 47C15.6933 47.308 14.08 47.44 12.496 47.396C10.9267 47.3667 9.51867 47.0953 8.272 46.582C7.04 46.054 6.10133 45.2107 5.456 44.052C4.86933 42.9667 4.56133 41.8667 4.532 40.752C4.50267 39.6227 4.488 38.3467 4.488 36.924V16.64H10.472V36.572C10.472 37.496 10.4793 38.332 10.494 39.08C10.5233 39.8133 10.6773 40.4 10.956 40.84C11.484 41.676 12.3273 42.1307 13.486 42.204C14.6447 42.2773 15.928 42.2187 17.336 42.028V47ZM0.44 27.86V23.24H17.336V27.86H0.44ZM34.232 47C32.5893 47.308 30.976 47.44 29.392 47.396C27.8227 47.3667 26.4147 47.0953 25.168 46.582C23.936 46.054 22.9973 45.2107 22.352 44.052C21.7653 42.9667 21.4573 41.8667 21.428 40.752C21.3987 39.6227 21.384 38.3467 21.384 36.924V16.64H27.368V36.572C27.368 37.496 27.3753 38.332 27.39 39.08C27.4193 39.8133 27.5733 40.4 27.852 40.84C28.38 41.676 29.2233 42.1307 30.382 42.204C31.5407 42.2773 32.824 42.2187 34.232 42.028V47ZM17.336 27.86V23.24H34.232V27.86H17.336Z" fill="black"/>
<path d="M19.2135 42.2108C18.0213 42.4618 17.3798 42.5139 17.3798 42.5139L15.9553 42.7109V46.4843C15.9553 46.4843 18.0011 46.8177 20.5167 45.6054C22.1413 44.8225 23.8659 44.0142 23.8659 44.0142L22.896 40.3468C22.896 40.3468 20.6347 41.9116 19.2135 42.2108Z" fill="black" stroke="black"/>
</g>
<defs>
<clipPath id="clip0_41_2">
<rect width="37" height="49.0197" fill="white"/>
</clipPath>
</defs>
</svg>
