<svg width="796" height="325" viewBox="0 0 796 325" fill="none" xmlns="http://www.w3.org/2000/svg">
<g clip-path="url(#clip0_47_2)">
<path d="M759.375 0.777588H1.55469C1.12537 0.777588 0.777344 1.12569 0.777344 1.5551V294.871C0.777344 295.301 1.12537 295.649 1.55469 295.649H759.375C759.804 295.649 760.152 295.301 760.152 294.871V1.5551C760.152 1.12569 759.804 0.777588 759.375 0.777588Z" fill="#09090B" stroke="#FAFAFA"/>
<path d="M759.704 287.189V322.716" stroke="#FAFAFA" stroke-linecap="round"/>
<path d="M759.704 294.904H795.223" stroke="#FAFAFA" stroke-linecap="round"/>
<path d="M104.133 114.916H120.208V113.035C120.208 103.342 120.893 95.9865 122.261 90.9689C123.629 85.9513 126.137 82.3023 129.785 80.0216C133.206 77.8549 137.937 76.4865 143.98 75.9163C150.022 75.3461 159.6 75.061 172.71 75.061V96.9558C166.782 96.9558 162.905 97.0128 161.081 97.1268C158.345 97.2408 156.235 97.64 154.754 98.3242C153.385 99.0084 152.587 100.035 152.359 101.403C152.017 102.772 151.846 104.71 151.846 107.219V114.916H172.71V139.035H104.133V114.916ZM120.208 145.877H151.846V202.153H120.208V145.877ZM233.359 158.706C233.359 152.89 233.303 149.013 233.188 147.074C233.074 144.337 232.732 142.285 232.162 140.916C231.592 139.434 230.68 138.522 229.425 138.179C228.057 137.837 226.176 137.666 223.782 137.666H221.388V113.548H223.782C233.701 113.548 241.454 114.346 247.04 115.943C252.627 117.425 256.788 119.934 259.524 123.469C262.033 126.662 263.628 130.938 264.312 136.298C265.112 141.543 265.51 149.013 265.51 158.706C265.51 167.714 265.225 174.727 264.654 179.745C264.199 184.648 263.002 188.698 261.063 191.89C258.897 195.425 255.648 198.105 251.315 199.929C246.984 201.64 240.998 202.724 233.359 203.179V158.706ZM223.782 203.522C213.863 203.522 206.111 202.78 200.524 201.298C194.938 199.816 190.776 197.306 188.039 193.772C185.532 190.579 183.879 186.359 183.08 181.114C182.396 175.869 182.054 168.398 182.054 158.706C182.054 149.811 182.34 142.855 182.909 137.837C183.48 132.82 184.734 128.658 186.671 125.351C188.724 121.701 191.917 119.022 196.248 117.311C200.581 115.487 206.567 114.346 214.205 113.89V158.706C214.205 164.522 214.262 168.342 214.376 170.166C214.491 172.903 214.833 174.956 215.402 176.324C215.973 177.693 216.941 178.548 218.309 178.89C219.45 179.232 221.274 179.403 223.782 179.403H226.176V203.522H223.782ZM321.307 119.877C323.702 117.596 326.494 116 329.687 115.087C332.992 114.061 337.041 113.548 341.829 113.548V142.114C336.699 142.114 332.479 142.456 329.174 143.14C325.981 143.824 323.359 145.022 321.307 146.732V119.877ZM282.487 114.916H314.125V202.153H282.487V114.916ZM402.848 148.956C402.848 146.219 402.563 144.109 401.992 142.627C401.537 141.487 400.795 140.802 399.769 140.574C398.858 140.232 397.204 140.061 394.81 140.061H393.955V118.679C398.401 115.372 404.558 113.719 412.424 113.719C415.96 113.719 419.038 114.175 421.659 115.087C424.282 115.886 426.505 117.368 428.329 119.535C432.433 124.552 434.485 133.903 434.485 147.587V202.153H402.848V148.956ZM450.561 148.956C450.561 146.219 450.276 144.109 449.706 142.627C449.25 141.487 448.509 140.802 447.483 140.574C446.572 140.232 444.917 140.061 442.523 140.061H441.668C441.441 137.096 441.099 134.017 440.642 130.824C439.731 126.263 438.761 122.956 437.735 120.903C442.523 116.114 449.364 113.719 458.257 113.719C467.949 113.719 474.561 116.855 478.094 123.127C479.691 125.864 480.775 129.228 481.344 133.219C481.914 137.096 482.199 141.886 482.199 147.587V202.153H450.561V148.956ZM355.134 114.916H386.772V202.153H355.134V114.916ZM558.374 138.351C555.523 137.894 551.418 137.666 546.061 137.666C542.525 137.666 540.018 137.894 538.536 138.351V113.548C546.63 113.662 555.009 114.688 563.675 116.627V138.864L558.374 138.351ZM537.339 203.522C528.446 203.522 521.377 202.438 516.133 200.272C510.887 198.105 507.012 194.911 504.504 190.693C502.223 187.043 500.742 182.767 500.057 177.864C499.487 172.961 499.202 166.574 499.202 158.706C499.202 151.522 499.487 145.535 500.057 140.745C500.626 135.956 501.824 131.737 503.649 128.087C505.814 123.868 509.064 120.618 513.397 118.337C517.843 115.943 523.829 114.46 531.353 113.89V158.535C531.353 163.553 531.467 167.316 531.695 169.824C532.037 172.332 532.664 174.272 533.577 175.64C534.603 177.008 536.027 177.977 537.852 178.548C539.789 179.119 542.525 179.403 546.061 179.403C552.102 179.403 556.264 179.232 558.545 178.89L564.359 178.206V200.443C555.922 202.495 546.916 203.522 537.339 203.522ZM630.685 160.929C630.685 154.886 630.629 150.894 630.514 148.956C630.287 145.763 630.001 143.653 629.659 142.627C629.204 141.487 628.406 140.802 627.265 140.574C626.126 140.232 624.302 140.061 621.793 140.061H620.082V118.679C624.529 115.372 630.343 113.719 637.526 113.719C647.787 113.719 654.685 116.855 658.219 123.127C659.816 125.864 660.899 129.228 661.468 133.219C662.039 137.096 662.323 141.886 662.323 147.587V202.153H630.685V160.929ZM581.262 114.916H612.9V202.153H581.262V114.916Z" fill="white"/>
<path d="M676.597 263.463L726.829 213.22" stroke="#FAFAFA" stroke-width="2" stroke-linecap="round"/>
<path d="M713.67 274.323L737.687 250.303" stroke="#FAFAFA" stroke-width="2" stroke-linecap="round"/>
</g>
<defs>
<clipPath id="clip0_47_2">
<rect width="796" height="325" fill="white"/>
</clipPath>
</defs>
</svg>
