<svg width="300" height="60" viewBox="0 0 300 60" fill="none" xmlns="http://www.w3.org/2000/svg">
<g clip-path="url(#clip0_36_5)">
<path d="M40.7793 1.49252C42.7199 0.59627 44.9643 0.142514 47.0437 1.00876L47.4581 1.20002H47.4637L48.0262 1.53377C49.2824 2.36064 50.1131 3.59627 50.6268 4.93689C51.1368 6.25877 51.3824 7.78314 51.4424 9.39752L51.4556 10.0913L51.4687 12.5775L46.5 12.6019L46.4868 10.1175L46.4475 9.05252C46.3743 8.06439 46.2093 7.29002 45.9899 6.72002C45.7087 5.98689 45.3974 5.73001 45.2062 5.62876L45.0881 5.58002C44.7693 5.47502 44.0999 5.43377 42.8624 6.00377C41.4768 6.64314 39.7668 7.89189 37.8487 9.78002C35.7956 11.8013 33.6224 14.445 31.4849 17.5688C31.9199 17.5631 32.3587 17.5575 32.7974 17.5575C41.2199 17.5575 48.9524 18.6938 54.6618 20.595C57.5043 21.5438 59.9849 22.7269 61.8037 24.1594C63.5943 25.5731 65.0925 27.5194 65.0925 29.9794C65.0925 32.0981 63.9693 33.8475 62.5349 35.1731C61.1006 36.4988 59.1524 37.6069 56.9324 38.5238L54.6356 39.4706L52.7399 34.8769L55.0368 33.93C56.9568 33.1388 58.3181 32.3044 59.1618 31.5263C60.0037 30.7481 60.1237 30.225 60.1256 29.9794C60.1237 29.6944 59.9512 29.0269 58.7287 28.0631C57.5306 27.12 55.6425 26.16 53.0906 25.3088C48.0112 23.6156 40.8356 22.5281 32.7974 22.5281C31.2618 22.5281 29.76 22.5656 28.2956 22.6406C26.9225 25.0238 25.6636 27.471 24.5231 29.9738C25.0331 31.0913 25.5768 32.2238 26.1543 33.36L26.8481 34.6894C30.3337 41.2538 34.2731 46.6594 37.8487 50.1806C39.7649 52.0688 41.4749 53.3156 42.8606 53.9531C44.2743 54.6056 44.9474 54.4594 45.2043 54.3281L45.4068 54.1856C45.6375 53.9794 45.9374 53.5519 46.1718 52.6706C46.4831 51.495 46.5862 49.8038 46.3781 47.6231C45.9656 43.2806 44.3774 37.5394 41.6624 31.3088L43.9406 30.3169L46.2168 29.3231C49.0668 35.8669 50.8481 42.1294 51.3262 47.1525C51.5624 49.6519 51.4931 51.9881 50.9756 53.94C50.4599 55.89 49.4062 57.7613 47.4599 58.7531L47.4581 58.7569C45.2681 59.8706 42.8531 59.4206 40.7812 58.4663C38.6774 57.495 36.4949 55.8225 34.3612 53.7225C30.1743 49.5975 25.7699 43.4231 22.0049 36.1463C20.7206 39.7388 19.8506 43.0744 19.4193 45.9413C19.0199 48.6038 19.0181 50.7188 19.3162 52.2131C19.6199 53.7431 20.1374 54.2006 20.3906 54.3281L20.5818 54.3975C21.1256 54.5288 22.3968 54.4163 24.6824 52.7981L26.7075 51.36L29.5818 55.4138L27.5568 56.85L27.0225 57.2138C24.3131 59.0138 21.0412 60.2344 18.1349 58.7531C15.9449 57.6375 14.8875 55.4213 14.4412 53.1844C13.9912 50.9119 14.0606 48.1631 14.5049 45.2006C15.1762 40.7494 16.7437 35.4844 19.0912 29.9756C18.2715 28.0542 17.5271 26.1015 16.8599 24.1219C15.2812 24.4706 13.8224 24.87 12.5024 25.3088C9.95057 26.16 8.06245 27.12 6.8662 28.0631C5.64183 29.0288 5.46932 29.6944 5.46932 29.9794C5.46932 30.3956 5.89307 31.4813 8.28182 32.8369L8.78806 33.1106L10.9893 34.2619L8.68683 38.6663L6.48557 37.515L5.91557 37.2038C3.07869 35.6063 0.502441 33.24 0.502441 29.9794C0.502441 27.5194 1.9987 25.5731 3.7912 24.1613C5.60995 22.7269 8.0887 21.5438 10.9312 20.5969C12.415 20.1069 13.9218 19.6895 15.4462 19.3463C15.0593 17.8318 14.7464 16.2993 14.5087 14.7544C14.0624 11.7919 13.9912 9.04689 14.4412 6.77626C14.8875 4.53751 15.9431 2.31751 18.1349 1.20189C20.4337 0.0318899 22.9631 0.570016 25.1756 1.66877L26.1018 2.16939L28.2468 3.42377L25.7381 7.71376L23.5931 6.45939L22.905 6.08814C21.4106 5.35314 20.6606 5.49189 20.3906 5.62876C20.1374 5.76001 19.6199 6.21564 19.3162 7.74377C19.0181 9.23814 19.0218 11.355 19.4231 14.0156C19.6293 15.39 19.9368 16.8731 20.3418 18.4388C21.9543 18.1988 23.6362 18.0038 25.3668 17.8594C28.2693 13.1719 31.3724 9.18377 34.3612 6.23814C36.4949 4.13627 38.6756 2.46377 40.7793 1.49252ZM46.2168 29.3231L41.6624 31.3088L40.6706 29.0306L45.2268 27.0469L46.2168 29.3231ZM22.0237 20.7244C21.3183 20.7244 20.6418 21.0046 20.143 21.5034C19.6442 22.0022 19.364 22.6787 19.364 23.3841C19.364 24.0895 19.6442 24.766 20.143 25.2648C20.6418 25.7635 21.3183 26.0438 22.0237 26.0438C22.7291 26.0438 23.4056 25.7635 23.9044 25.2648C24.4032 24.766 24.6834 24.0895 24.6834 23.3841C24.6834 22.6787 24.4032 22.0022 23.9044 21.5034C23.4056 21.0046 22.7291 20.7244 22.0237 20.7244ZM87.6206 45.2719V12.21H99.7068C102.529 12.21 104.839 12.6506 106.641 13.5319C108.442 14.4131 109.768 15.5944 110.619 17.0756C111.502 18.5231 111.945 20.175 111.945 22.0331C111.945 23.7956 111.502 25.4344 110.619 26.9456C109.768 28.4269 108.426 29.6213 106.59 30.5344C104.754 31.4156 102.409 31.8581 99.5531 31.8581H92.7206V45.2719H87.6206ZM106.386 45.2719L98.6868 30.5831H104.295L112.301 45.2719H106.386ZM92.7206 28.2675H99.3487C101.865 28.2675 103.717 27.7013 104.908 26.5669C106.097 25.4025 106.693 23.9231 106.693 22.1288C106.693 20.3025 106.114 18.8531 104.959 17.7825C103.802 16.7138 101.932 16.1775 99.3487 16.1775H92.7206V28.2675ZM125.824 45.8381C123.377 45.8381 121.2 45.3188 119.297 44.2781C117.428 43.2729 115.875 41.7691 114.81 39.9338C113.756 38.0775 113.229 35.9194 113.229 33.465C113.229 30.945 113.756 28.7569 114.81 26.8988C115.864 25.0425 117.419 23.5201 119.297 22.5056C121.2 21.435 123.411 20.9006 125.925 20.9006C128.441 20.9006 130.599 21.42 132.401 22.4569C134.203 23.4975 135.598 24.8831 136.582 26.6156C137.569 28.3144 138.062 30.2044 138.062 32.2819C138.062 32.5969 138.045 32.9438 138.011 33.3225C138.011 33.6675 137.994 34.0613 137.961 34.5038H116.951V31.1475H132.962C132.861 29.1656 132.146 27.6225 130.821 26.52C129.495 25.3856 127.847 24.8194 125.874 24.8194C124.481 24.8194 123.206 25.1194 122.051 25.7175C120.894 26.2852 119.921 27.1694 119.246 28.2675C118.566 29.37 118.226 30.7706 118.226 32.4713V33.7931C118.226 35.5556 118.566 37.0519 119.246 38.28C119.914 39.4318 120.884 40.3791 122.051 41.0194C123.206 41.6194 124.464 41.9175 125.824 41.9175C127.455 41.9175 128.797 41.5875 129.851 40.9256C130.905 40.2638 131.689 39.3675 132.197 38.2331H137.297C136.849 39.6905 136.083 41.0299 135.052 42.1538C133.999 43.2881 132.69 44.1844 131.126 44.8463C129.596 45.5063 127.83 45.8381 125.824 45.8381ZM149.692 45.8381C147.585 45.8381 145.834 45.5063 144.441 44.8444C143.047 44.1844 142.009 43.3031 141.33 42.2006C140.66 41.1057 140.307 39.8466 140.31 38.5631C140.31 36.9881 140.752 35.6513 141.636 34.5506C142.519 33.4163 143.777 32.55 145.41 31.9519C147.041 31.3519 148.995 31.0538 151.273 31.0538H157.954C157.954 29.6681 157.732 28.5206 157.29 27.6056C156.877 26.7228 156.176 26.0067 155.302 25.575C154.451 25.1025 153.364 24.8663 152.038 24.8663C150.508 24.8663 149.199 25.2131 148.112 25.9069C147.024 26.5669 146.344 27.5588 146.072 28.8825H140.974C141.176 27.2138 141.789 25.7963 142.809 24.63C143.863 23.4338 145.206 22.5206 146.837 21.8925C148.49 21.2265 150.256 20.889 152.038 20.8988C154.451 20.8988 156.474 21.2925 158.106 22.08C159.739 22.8675 160.961 23.985 161.777 25.4344C162.628 26.85 163.052 28.5506 163.052 30.5344V45.2719H158.616L158.209 41.2556C157.827 41.8963 157.383 42.498 156.883 43.0519C156.353 43.6337 155.733 44.1274 155.047 44.5144C154.301 44.9501 153.492 45.2688 152.649 45.4594C151.686 45.7221 150.691 45.8496 149.692 45.8381ZM150.662 42.0131C151.749 42.0131 152.736 41.8069 153.619 41.3981C154.502 40.9894 155.25 40.4381 155.863 39.7444C156.494 39.0447 156.979 38.2262 157.29 37.3369C157.629 36.4238 157.817 35.4938 157.851 34.5488V34.4081H151.783C150.321 34.4081 149.132 34.5806 148.213 34.9275C147.33 35.2425 146.683 35.6831 146.276 36.2494C145.864 36.8277 145.65 37.5234 145.665 38.2331C145.665 39.0206 145.851 39.6975 146.226 40.2638C146.632 40.8 147.21 41.2256 147.958 41.5388C148.706 41.8538 149.608 42.0113 150.662 42.0113V42.0131ZM178.892 45.8381C176.411 45.8381 174.201 45.3188 172.264 44.2781C170.37 43.2492 168.785 41.7333 167.674 39.8869C166.586 38.0306 166.042 35.8725 166.042 33.4163C166.042 30.9281 166.586 28.755 167.674 26.8988C168.767 25.0375 170.356 23.5166 172.264 22.5056C174.201 21.435 176.411 20.9006 178.892 20.9006C182.019 20.9006 184.639 21.6563 186.746 23.1675C188.854 24.6788 190.196 26.7244 190.774 29.3063H185.471C185.317 28.6405 185.029 28.0128 184.626 27.4608C184.223 26.9089 183.713 26.4441 183.126 26.0944C181.935 25.3388 180.508 24.9619 178.841 24.9619C177.518 24.9522 176.216 25.2945 175.069 25.9538C173.912 26.5838 172.978 27.5288 172.264 28.7869C171.583 30.015 171.244 31.5431 171.244 33.3694C171.244 34.7231 171.448 35.9344 171.855 37.0069C172.264 38.0438 172.807 38.9269 173.488 39.6506C174.201 40.3744 175.018 40.9256 175.935 41.3044C176.854 41.6494 177.821 41.8238 178.841 41.8238C179.964 41.8238 180.966 41.6663 181.851 41.3513C182.723 41.0341 183.509 40.5164 184.146 39.84C184.791 39.1781 185.233 38.3906 185.471 37.4775H190.774C190.196 39.9975 188.854 42.0281 186.746 43.5713C184.639 45.0825 182.019 45.8381 178.892 45.8381ZM204.249 45.2719C202.618 45.2719 201.206 45.0356 200.017 44.5631C198.855 44.1153 197.883 43.2811 197.263 42.2006C196.618 41.1 196.294 39.6038 196.294 37.7138V25.4813H191.857V21.4669H196.294L196.907 15.5156H201.394V21.4669H208.686V25.4813H201.394V37.7625C201.394 39.1144 201.699 40.0444 202.311 40.5488C202.924 41.0213 203.977 41.2575 205.472 41.2575H208.431V45.27L204.249 45.2719ZM222.512 45.2719V12.21H235.717C238.2 12.21 240.274 12.5869 241.939 13.3425C243.606 14.0663 244.847 15.075 245.662 16.365C246.512 17.625 246.937 19.0575 246.937 20.6644C246.937 22.3331 246.546 23.7338 245.764 24.8681C244.976 26.0062 243.903 26.9178 242.653 27.5119C241.373 28.1158 239.988 28.4684 238.575 28.5506L239.287 28.0781C240.794 28.0936 242.27 28.5007 243.572 29.2594C244.83 29.9511 245.885 30.961 246.63 32.1881C247.378 33.4163 247.753 34.77 247.753 36.2494C247.753 37.95 247.311 39.4931 246.427 40.8788C245.542 42.2325 244.234 43.3031 242.501 44.0906C240.767 44.8781 238.642 45.2719 236.126 45.2719H222.512ZM227.61 41.3513H235.464C237.707 41.3513 239.441 40.8788 240.666 39.9338C241.922 38.9588 242.552 37.59 242.552 35.8256C242.552 34.0931 241.905 32.7075 240.613 31.6688C239.357 30.63 237.606 30.1106 235.361 30.1106H227.61V41.3513ZM227.61 26.4731H235.157C237.3 26.4731 238.931 26.0175 240.052 25.1044C241.176 24.1594 241.736 22.8675 241.736 21.2306C241.736 19.6556 241.176 18.4125 240.052 17.4994C238.931 16.5544 237.247 16.0819 235.005 16.0819H227.61V26.4731ZM251.385 45.2719V21.4669H256.485V45.2719H251.385ZM253.986 16.9781C253.001 16.9781 252.184 16.6969 251.539 16.1288C250.927 15.5625 250.622 14.8388 250.622 13.9575C250.622 13.1063 250.927 12.4144 251.539 11.8781C252.184 11.3119 253.001 11.0288 253.986 11.0288C254.938 11.0288 255.737 11.3119 256.384 11.8781C257.029 12.4144 257.351 13.1063 257.351 13.9575C257.351 14.8388 257.029 15.5625 256.384 16.1288C255.737 16.6969 254.938 16.9781 253.986 16.9781ZM271.834 45.2719C270.201 45.2719 268.792 45.0356 267.604 44.5631C266.441 44.1154 265.468 43.2812 264.847 42.2006C264.201 41.1 263.88 39.6038 263.88 37.7138V25.4813H259.444V21.4669H263.88L264.491 15.5156H268.978V21.4669H276.27V25.4813H268.978V37.7625C268.978 39.1144 269.286 40.0444 269.897 40.5488C270.51 41.0213 271.564 41.2575 273.058 41.2575H276.017V45.27L271.834 45.2719ZM289.286 45.8381C287.111 45.8381 285.208 45.5063 283.575 44.8444C281.946 44.1844 280.652 43.2563 279.699 42.06C278.749 40.8619 278.171 39.4613 277.967 37.8563H283.168C283.339 38.6119 283.661 39.3038 284.136 39.9338C284.686 40.5925 285.385 41.1105 286.176 41.445C287.061 41.8238 288.096 42.0113 289.286 42.0113C290.407 42.0113 291.326 41.8706 292.041 41.5875C292.789 41.2725 293.332 40.8638 293.672 40.3594C294.013 39.8231 294.182 39.2569 294.182 38.6588C294.182 37.7775 293.946 37.1156 293.467 36.675C293.027 36.2025 292.346 35.8406 291.427 35.5875C290.375 35.2648 289.302 35.0129 288.216 34.8338C287.027 34.6444 285.872 34.3913 284.749 34.0763C283.721 33.7561 282.73 33.3287 281.792 32.8013C280.979 32.3332 280.281 31.6879 279.752 30.9131C279.242 30.1256 278.987 29.1656 278.987 28.0313C278.987 26.6775 279.379 25.4644 280.159 24.3938C280.941 23.2931 282.047 22.4438 283.474 21.8438C284.934 21.2138 286.652 20.9006 288.624 20.9006C291.48 20.9006 293.773 21.5288 295.507 22.7888C297.242 24.0488 298.262 25.8263 298.567 28.1269H293.621C293.486 27.0563 292.974 26.2369 292.091 25.6706C291.208 25.0706 290.034 24.7725 288.574 24.7725C287.111 24.7725 285.988 25.0406 285.208 25.575C284.426 26.1113 284.034 26.82 284.034 27.7013C284.034 28.2675 284.256 28.77 284.698 29.2125C285.139 29.6531 285.786 30.0319 286.635 30.3469C287.52 30.6281 288.589 30.8963 289.847 31.1494C291.649 31.4644 293.265 31.8581 294.692 32.3306C296.121 32.8013 297.259 33.4931 298.108 34.4081C298.959 35.3213 299.385 36.6281 299.385 38.3269C299.419 39.8081 299.008 41.115 298.159 42.2475C297.345 43.3819 296.171 44.2631 294.641 44.8931C293.145 45.5231 291.36 45.8381 289.286 45.8381Z" fill="white"/>
</g>
<defs>
<clipPath id="clip0_36_5">
<rect width="300" height="60" fill="white"/>
</clipPath>
</defs>
</svg>
