<svg width="300" height="61" viewBox="0 0 300 61" fill="none" xmlns="http://www.w3.org/2000/svg">
<path d="M40.7793 1.50362C42.7199 0.600686 44.9643 0.143544 47.0437 1.01626L47.4581 1.20894H47.4637L48.0262 1.54518C49.2824 2.37823 50.1131 3.62307 50.6268 4.9737C51.1368 6.30544 51.3824 7.84119 51.4424 9.46762L51.4556 10.1665L51.4687 12.6713L46.5 12.6959L46.4868 10.193L46.4475 9.12004C46.3743 8.12454 46.2093 7.34439 45.9899 6.77013C45.7087 6.03154 45.3974 5.77274 45.2062 5.67074L45.0881 5.62163C44.7693 5.51585 44.0999 5.47428 42.8624 6.04854C41.4768 6.69268 39.7668 7.95075 37.8487 9.85297C35.7956 11.8893 33.6224 14.5528 31.4849 17.6998C31.9199 17.6942 32.3587 17.6885 32.7974 17.6885C41.2199 17.6885 48.9524 18.8332 54.6618 20.7487C57.5043 21.7045 59.9849 22.8965 61.8037 24.3397C63.5943 25.764 65.0925 27.7247 65.0925 30.2031C65.0925 32.3376 63.9693 34.1001 62.5349 35.4356C61.1006 36.7711 59.1524 37.8875 56.9324 38.8112L54.6356 39.7652L52.7399 35.1371L55.0368 34.1832C56.9568 33.386 58.3181 32.5454 59.1618 31.7615C60.0037 30.9776 60.1237 30.4505 60.1256 30.2031C60.1237 29.916 59.9512 29.2435 58.7287 28.2725C57.5306 27.3224 55.6425 26.3552 53.0906 25.4976C48.0112 23.7918 40.8356 22.6962 32.7974 22.6962C31.2618 22.6962 29.76 22.734 28.2956 22.8096C26.9225 25.2105 25.6636 27.6759 24.5231 30.1974C25.0331 31.3233 25.5768 32.4642 26.1543 33.6089L26.8481 34.9482C30.3337 41.5616 34.2731 47.0076 37.8487 50.5551C39.7649 52.4573 41.4749 53.7135 42.8606 54.3557C44.2743 55.0131 44.9474 54.8658 45.2043 54.7335L45.4068 54.59C45.6375 54.3822 45.9374 53.9515 46.1718 53.0637C46.4831 51.8793 46.5862 50.1754 46.3781 47.9785C45.9656 43.6036 44.3774 37.8195 41.6624 31.5424L43.9406 30.5431L46.2168 29.5419C49.0668 36.1345 50.8481 42.4438 51.3262 47.5044C51.5624 50.0224 51.4931 52.3761 50.9756 54.3425C50.4599 56.3071 49.4062 58.1923 47.4599 59.1916L47.4581 59.1953C45.2681 60.3174 42.8531 59.864 40.7812 58.9025C38.6774 57.924 36.4949 56.2391 34.3612 54.1234C30.1743 49.9676 25.7699 43.7472 22.0049 36.416C20.7206 40.0353 19.8506 43.3958 19.4193 46.2841C19.0199 48.9664 19.0181 51.0972 19.3162 52.6028C19.6199 54.1442 20.1374 54.6051 20.3906 54.7335L20.5818 54.8034C21.1256 54.9357 22.3968 54.8223 24.6824 53.1921L26.7075 51.7433L29.5818 55.8273L27.5568 57.2742L27.0225 57.6407C24.3131 59.4541 21.0412 60.6839 18.1349 59.1916C15.9449 58.0676 14.8875 55.8348 14.4412 53.5813C13.9912 51.2918 14.0606 48.5225 14.5049 45.5379C15.1762 41.0535 16.7437 35.7492 19.0912 30.1993C18.2715 28.2635 17.5271 26.2962 16.8599 24.3019C15.2812 24.6532 13.8224 25.0556 12.5024 25.4976C9.95057 26.3552 8.06245 27.3224 6.8662 28.2725C5.64183 29.2454 5.46932 29.916 5.46932 30.2031C5.46932 30.6224 5.89307 31.7162 8.28182 33.0819L8.78806 33.3577L10.9893 34.5175L8.68683 38.9548L6.48557 37.7949L5.91557 37.4814C3.07869 35.8719 0.502441 33.488 0.502441 30.2031C0.502441 27.7247 1.9987 25.764 3.7912 24.3415C5.60995 22.8965 8.0887 21.7045 10.9312 20.7506C12.415 20.2569 13.9218 19.8364 15.4462 19.4906C15.0593 17.9648 14.7464 16.4209 14.5087 14.8645C14.0624 11.8799 13.9912 9.11437 14.4412 6.8268C14.8875 4.57134 15.9431 2.33478 18.1349 1.21083C20.4337 0.0320946 22.9631 0.574236 25.1756 1.68119L26.1018 2.18555L28.2468 3.44928L25.7381 7.7713L23.5931 6.50756L22.905 6.13355C21.4106 5.39306 20.6606 5.53284 20.3906 5.67074C20.1374 5.80297 19.6199 6.262 19.3162 7.80152C19.0181 9.30705 19.0218 11.4397 19.4231 14.1202C19.6293 15.5048 19.9368 16.999 20.3418 18.5763C21.9543 18.3345 23.6362 18.1381 25.3668 17.9926C28.2693 13.2702 31.3724 9.25227 34.3612 6.28466C36.4949 4.1671 38.6756 2.48212 40.7793 1.50362ZM46.2168 29.5419L41.6624 31.5424L40.6706 29.2473L45.2268 27.2487L46.2168 29.5419ZM22.0237 20.879C21.3183 20.879 20.6418 21.1613 20.143 21.6638C19.6442 22.1663 19.364 22.8479 19.364 23.5586C19.364 24.2692 19.6442 24.9508 20.143 25.4533C20.6418 25.9558 21.3183 26.2381 22.0237 26.2381C22.7291 26.2381 23.4056 25.9558 23.9044 25.4533C24.4032 24.9508 24.6834 24.2692 24.6834 23.5586C24.6834 22.8479 24.4032 22.1663 23.9044 21.6638C23.4056 21.1613 22.7291 20.879 22.0237 20.879ZM87.6206 45.6097V12.3011H99.7068C102.529 12.3011 104.839 12.745 106.641 13.6328C108.442 14.5207 109.768 15.7107 110.619 17.203C111.502 18.6613 111.945 20.3255 111.945 22.1975C111.945 23.9732 111.502 25.6242 110.619 27.1467C109.768 28.639 108.426 29.8423 106.59 30.7622C104.754 31.6501 102.409 32.0959 99.5531 32.0959H92.7206V45.6097H87.6206ZM106.386 45.6097L98.6868 30.8113H104.295L112.301 45.6097H106.386ZM92.7206 28.4784H99.3487C101.865 28.4784 103.717 27.908 104.908 26.7651C106.097 25.5921 106.693 24.1016 106.693 22.2939C106.693 20.454 106.114 18.9938 104.959 17.9152C103.802 16.8385 101.932 16.2982 99.3487 16.2982H92.7206V28.4784ZM125.824 46.1802C123.377 46.1802 121.2 45.6569 119.297 44.6085C117.428 43.5958 115.875 42.0807 114.81 40.2317C113.756 38.3616 113.229 36.1874 113.229 33.7147C113.229 31.1759 113.756 28.9715 114.81 27.0995C115.864 25.2293 117.419 23.6956 119.297 22.6736C121.2 21.5949 123.411 21.0566 125.925 21.0566C128.441 21.0566 130.599 21.5798 132.401 22.6245C134.203 23.6728 135.598 25.0688 136.582 26.8142C137.569 28.5257 138.062 30.4298 138.062 32.5228C138.062 32.8401 138.045 33.1896 138.011 33.5712C138.011 33.9187 137.994 34.3154 137.961 34.7612H116.951V31.3799H132.962C132.861 29.3833 132.146 27.8286 130.821 26.7179C129.495 25.5751 127.847 25.0046 125.874 25.0046C124.481 25.0046 123.206 25.3068 122.051 25.9094C120.894 26.4813 119.921 27.3721 119.246 28.4784C118.566 29.5892 118.226 31.0002 118.226 32.7136V34.0453C118.226 35.8209 118.566 37.3284 119.246 38.5657C119.914 39.726 120.884 40.6804 122.051 41.3255C123.206 41.9299 124.464 42.2303 125.824 42.2303C127.455 42.2303 128.797 41.8978 129.851 41.231C130.905 40.5642 131.689 39.6613 132.197 38.5184H137.297C136.849 39.9867 136.083 41.336 135.052 42.4683C133.999 43.6112 132.69 44.5141 131.126 45.1809C129.596 45.8458 127.83 46.1802 125.824 46.1802ZM149.692 46.1802C147.585 46.1802 145.834 45.8458 144.441 45.179C143.047 44.5141 142.009 43.6263 141.33 42.5155C140.66 41.4124 140.307 40.1439 140.31 38.8509C140.31 37.2641 140.752 35.9173 141.636 34.8084C142.519 33.6656 143.777 32.7929 145.41 32.1903C147.041 31.5858 148.995 31.2855 151.273 31.2855H157.954C157.954 29.8895 157.732 28.7334 157.29 27.8116C156.877 26.9222 156.176 26.2008 155.302 25.7658C154.451 25.2898 153.364 25.0518 152.038 25.0518C150.508 25.0518 149.199 25.4013 148.112 26.1002C147.024 26.7651 146.344 27.7644 146.072 29.098H140.974C141.176 27.4168 141.789 25.9887 142.809 24.8138C143.863 23.6086 145.206 22.6887 146.837 22.0559C148.49 21.3849 150.256 21.0448 152.038 21.0547C154.451 21.0547 156.474 21.4514 158.106 22.2448C159.739 23.0381 160.961 24.164 161.777 25.6242C162.628 27.0504 163.052 28.7637 163.052 30.7622V45.6097H158.616L158.209 41.5635C157.827 42.2089 157.383 42.8151 156.883 43.3731C156.353 43.9593 155.733 44.4567 155.047 44.8466C154.301 45.2855 153.492 45.6066 152.649 45.7986C151.686 46.0633 150.691 46.1917 149.692 46.1802ZM150.662 42.3266C151.749 42.3266 152.736 42.1188 153.619 41.707C154.502 41.2952 155.25 40.7399 155.863 40.041C156.494 39.336 156.979 38.5115 157.29 37.6155C157.629 36.6955 157.817 35.7586 157.851 34.8066V34.6649H151.783C150.321 34.6649 149.132 34.8387 148.213 35.1881C147.33 35.5055 146.683 35.9494 146.276 36.5199C145.864 37.1025 145.65 37.8033 145.665 38.5184C145.665 39.3118 145.851 39.9937 146.226 40.5642C146.632 41.1045 147.21 41.5333 147.958 41.8487C148.706 42.1661 149.608 42.3247 150.662 42.3247V42.3266ZM178.892 46.1802C176.411 46.1802 174.201 45.6569 172.264 44.6085C170.37 43.572 168.785 42.0447 167.674 40.1845C166.586 38.3144 166.042 36.1402 166.042 33.6656C166.042 31.1589 166.586 28.9696 167.674 27.0995C168.767 25.2243 170.356 23.6921 172.264 22.6736C174.201 21.5949 176.411 21.0566 178.892 21.0566C182.019 21.0566 184.639 21.8178 186.746 23.3404C188.854 24.8629 190.196 26.9238 190.774 29.5249H185.471C185.317 28.8542 185.029 28.2218 184.626 27.6657C184.223 27.1097 183.713 26.6414 183.126 26.2891C181.935 25.5278 180.508 25.1481 178.841 25.1481C177.518 25.1384 176.216 25.4833 175.069 26.1474C173.912 26.7821 172.978 27.7342 172.264 29.0017C171.583 30.239 171.244 31.7785 171.244 33.6184C171.244 34.9822 171.448 36.2025 171.855 37.283C172.264 38.3276 172.807 39.2174 173.488 39.9465C174.201 40.6757 175.018 41.231 175.935 41.6126C176.854 41.9602 177.821 42.1359 178.841 42.1359C179.964 42.1359 180.966 41.9772 181.851 41.6598C182.723 41.3403 183.509 40.8188 184.146 40.1373C184.791 39.4705 185.233 38.6771 185.471 37.7572H190.774C190.196 40.296 188.854 42.3417 186.746 43.8964C184.639 45.4189 182.019 46.1802 178.892 46.1802ZM204.249 45.6097C202.618 45.6097 201.206 45.3717 200.017 44.8957C198.855 44.4445 197.883 43.6041 197.263 42.5155C196.618 41.4067 196.294 39.8993 196.294 37.9952V25.6714H191.857V21.6271H196.294L196.907 15.6314H201.394V21.6271H208.686V25.6714H201.394V38.0443C201.394 39.4063 201.699 40.3432 202.311 40.8513C202.924 41.3274 203.977 41.5654 205.472 41.5654H208.431V45.6078L204.249 45.6097ZM222.512 45.6097V12.3011H235.717C238.2 12.3011 240.274 12.6808 241.939 13.4421C243.606 14.1712 244.847 15.1875 245.662 16.4871C246.512 17.7565 246.937 19.1997 246.937 20.8186C246.937 22.4998 246.546 23.9109 245.764 25.0537C244.976 26.2003 243.903 27.1187 242.653 27.7172C241.373 28.3256 239.988 28.6808 238.575 28.7637L239.287 28.2876C240.794 28.3033 242.27 28.7134 243.572 29.4777C244.83 30.1746 245.885 31.192 246.63 32.4283C247.378 33.6656 247.753 35.0295 247.753 36.5199C247.753 38.2332 247.311 39.7878 246.427 41.1838C245.542 42.5476 244.234 43.6263 242.501 44.4196C240.767 45.213 238.642 45.6097 236.126 45.6097H222.512ZM227.61 41.6598H235.464C237.707 41.6598 239.441 41.1838 240.666 40.2317C241.922 39.2495 242.552 37.8705 242.552 36.093C242.552 34.3475 241.905 32.9516 240.613 31.9051C239.357 30.8586 237.606 30.3353 235.361 30.3353H227.61V41.6598ZM227.61 26.6707H235.157C237.3 26.6707 238.931 26.2116 240.052 25.2917C241.176 24.3397 241.736 23.0381 241.736 21.3891C241.736 19.8023 241.176 18.5499 240.052 17.63C238.931 16.6779 237.247 16.2019 235.005 16.2019H227.61V26.6707ZM251.385 45.6097V21.6271H256.485V45.6097H251.385ZM253.986 17.1048C253.001 17.1048 252.184 16.8215 251.539 16.2491C250.927 15.6786 250.622 14.9495 250.622 14.0616C250.622 13.204 250.927 12.507 251.539 11.9667C252.184 11.3963 253.001 11.111 253.986 11.111C254.938 11.111 255.737 11.3963 256.384 11.9667C257.029 12.507 257.351 13.204 257.351 14.0616C257.351 14.9495 257.029 15.6786 256.384 16.2491C255.737 16.8215 254.938 17.1048 253.986 17.1048ZM271.834 45.6097C270.201 45.6097 268.792 45.3717 267.604 44.8957C266.441 44.4446 265.468 43.6042 264.847 42.5155C264.201 41.4067 263.88 39.8993 263.88 37.9952V25.6714H259.444V21.6271H263.88L264.491 15.6314H268.978V21.6271H276.27V25.6714H268.978V38.0443C268.978 39.4063 269.286 40.3432 269.897 40.8513C270.51 41.3274 271.564 41.5654 273.058 41.5654H276.017V45.6078L271.834 45.6097ZM289.286 46.1802C287.111 46.1802 285.208 45.8458 283.575 45.179C281.946 44.5141 280.652 43.579 279.699 42.3739C278.749 41.1668 278.171 39.7557 277.967 38.1387H283.168C283.339 38.9 283.661 39.597 284.136 40.2317C284.686 40.8954 285.385 41.4173 286.176 41.7543C287.061 42.1359 288.096 42.3247 289.286 42.3247C290.407 42.3247 291.326 42.1831 292.041 41.8978C292.789 41.5805 293.332 41.1687 293.672 40.6606C294.013 40.1203 294.182 39.5498 294.182 38.9472C294.182 38.0594 293.946 37.3926 293.467 36.9487C293.027 36.4727 292.346 36.1081 291.427 35.8531C290.375 35.5279 289.302 35.2742 288.216 35.0937C287.027 34.9029 285.872 34.6479 284.749 34.3305C283.721 34.008 282.73 33.5774 281.792 33.046C280.979 32.5745 280.281 31.9243 279.752 31.1438C279.242 30.3504 278.987 29.3833 278.987 28.2404C278.987 26.8766 279.379 25.6544 280.159 24.5758C280.941 23.4669 282.047 22.6112 283.474 22.0068C284.934 21.372 286.652 21.0566 288.624 21.0566C291.48 21.0566 293.773 21.6894 295.507 22.9588C297.242 24.2282 298.262 26.019 298.567 28.3368H293.621C293.486 27.2581 292.974 26.4327 292.091 25.8622C291.208 25.2577 290.034 24.9574 288.574 24.9574C287.111 24.9574 285.988 25.2275 285.208 25.7658C284.426 26.3061 284.034 27.0201 284.034 27.908C284.034 28.4784 284.256 28.9847 284.698 29.4305C285.139 29.8744 285.786 30.256 286.635 30.5733C287.52 30.8567 288.589 31.1268 289.847 31.3818C291.649 31.6992 293.265 32.0959 294.692 32.5719C296.121 33.046 297.259 33.7431 298.108 34.6649C298.959 35.5848 299.385 36.9015 299.385 38.6129C299.419 40.1052 299.008 41.4218 298.159 42.5628C297.345 43.7056 296.171 44.5934 294.641 45.2281C293.145 45.8628 291.36 46.1802 289.286 46.1802Z" fill="black"/>
</svg>
