<svg width="521" height="110" viewBox="0 0 521 110" fill="none" xmlns="http://www.w3.org/2000/svg">
<path d="M167.372 88.8099C161.972 88.8099 157.262 88.1499 153.242 86.8299C149.222 85.5099 146.132 83.6499 143.972 81.2499C141.872 78.7899 140.822 75.9399 140.822 72.6999C140.822 67.7799 144.152 65.3199 150.812 65.3199C151.052 69.8799 152.582 73.3299 155.402 75.6699C158.282 78.0099 162.302 79.1799 167.462 79.1799C171.722 79.1799 175.022 78.4599 177.362 77.0199C179.702 75.5199 180.872 73.4499 180.872 70.8099C180.872 69.0699 180.422 67.6599 179.522 66.5799C178.622 65.4399 177.092 64.4499 174.932 63.6099C172.772 62.7099 169.622 61.8099 165.482 60.9099C159.602 59.5299 154.952 57.9999 151.532 56.3199C148.172 54.6399 145.742 52.6299 144.242 50.2899C142.742 47.8899 141.992 44.9199 141.992 41.3799C141.992 37.9599 142.982 34.9599 144.962 32.3799C147.002 29.7999 149.852 27.7899 153.512 26.3499C157.232 24.9099 161.492 24.1899 166.292 24.1899C170.912 24.1899 175.022 24.8199 178.622 26.0799C182.282 27.2799 185.132 28.9899 187.172 31.2099C189.272 33.4299 190.322 35.9799 190.322 38.8599C190.322 43.2999 187.112 45.6099 180.692 45.7899C180.332 41.6499 179.012 38.6199 176.732 36.6999C174.452 34.7799 170.972 33.8199 166.292 33.8199C162.272 33.8199 159.182 34.4799 157.022 35.7999C154.862 37.1199 153.782 38.9799 153.782 41.3799C153.782 43.0599 154.202 44.4699 155.042 45.6099C155.882 46.6899 157.292 47.6499 159.272 48.4899C161.252 49.2699 164.072 50.0799 167.732 50.9199C173.912 52.2999 178.802 53.8599 182.402 55.5999C186.002 57.2799 188.612 59.3499 190.232 61.8099C191.852 64.2099 192.662 67.1799 192.662 70.7199C192.662 74.3799 191.612 77.5899 189.512 80.3499C187.472 83.0499 184.532 85.1499 180.692 86.6499C176.912 88.0899 172.472 88.8099 167.372 88.8099ZM198.633 32.8299C198.633 30.0699 199.593 27.9399 201.513 26.4399C203.433 24.9399 206.193 24.1899 209.793 24.1899V47.5899C209.013 48.4299 208.293 49.3899 207.633 50.4699L208.173 50.8299C212.313 45.0699 217.593 42.1899 224.013 42.1899C227.073 42.1899 229.773 42.8799 232.113 44.2599C234.453 45.6399 236.253 47.5299 237.513 49.9299C238.833 52.3299 239.493 55.0299 239.493 58.0299V81.9699C239.493 84.3699 238.563 86.1099 236.703 87.1899C234.843 88.2699 232.023 88.8099 228.243 88.8099V59.6499C228.243 57.3699 227.553 55.5099 226.173 54.0699C224.853 52.6299 222.903 51.9099 220.323 51.9099C217.263 51.9099 214.743 52.8699 212.763 54.7899C210.783 56.6499 209.793 58.9899 209.793 61.8099V81.9699C209.793 84.3699 208.863 86.1099 207.003 87.1899C205.143 88.2699 202.353 88.8099 198.633 88.8099V32.8299ZM261.41 88.8099C258.35 88.8099 255.53 88.2099 252.95 87.0099C250.43 85.8099 248.39 84.0999 246.83 81.8799C245.33 79.5999 244.58 76.8999 244.58 73.7799C244.58 70.6599 245.39 67.9599 247.01 65.6799C248.63 63.3399 250.82 61.5699 253.58 60.3699C256.4 59.1099 259.49 58.4799 262.85 58.4799C265.61 58.4799 268.07 58.9299 270.23 59.8299C272.45 60.6699 274.49 61.9599 276.35 63.6999L276.8 63.2499C276.26 62.7099 275.33 61.8999 274.01 60.8199V59.0199C274.01 56.5599 273.14 54.6099 271.4 53.1699C269.66 51.7299 267.23 51.0099 264.11 51.0099C258.53 51.0099 254.42 53.0499 251.78 57.1299C250.46 56.7099 249.35 56.0499 248.45 55.1499C247.55 54.1899 247.1 53.1699 247.1 52.0899C247.1 50.2899 247.91 48.6399 249.53 47.1399C251.15 45.6399 253.34 44.4399 256.1 43.5399C258.86 42.6399 261.86 42.1899 265.1 42.1899C271.46 42.1899 276.38 43.6899 279.86 46.6899C283.34 49.6299 285.08 53.6499 285.08 58.7499V81.2499C285.08 83.8899 284.24 85.8099 282.56 87.0099C280.88 88.2099 278.24 88.8099 274.64 88.8099V85.1199C275.66 84.0999 276.35 83.3499 276.71 82.8699L276.35 82.4199C274.37 84.5199 272.24 86.1099 269.96 87.1899C267.74 88.2699 264.89 88.8099 261.41 88.8099ZM264.29 80.6199C267.41 80.6199 269.84 80.0199 271.58 78.8199C273.32 77.6199 274.19 75.9099 274.19 73.6899C274.19 71.5299 273.29 69.8199 271.49 68.5599C269.75 67.2999 267.38 66.6699 264.38 66.6699C261.62 66.6699 259.43 67.2999 257.81 68.5599C256.25 69.7599 255.47 71.4699 255.47 73.6899C255.47 75.9699 256.25 77.7099 257.81 78.9099C259.37 80.0499 261.53 80.6199 264.29 80.6199ZM309.022 88.8099C305.782 88.8099 302.872 88.1199 300.292 86.7399C297.712 85.3599 295.672 83.4699 294.172 81.0699C292.672 78.6099 291.922 75.7899 291.922 72.6099V58.3899C291.922 55.2699 292.702 52.4799 294.262 50.0199C295.822 47.5599 297.982 45.6399 300.742 44.2599C303.562 42.8799 306.682 42.1899 310.102 42.1899C312.322 42.1899 314.602 42.6699 316.942 43.6299C319.342 44.5299 321.352 45.7599 322.972 47.3199L323.332 46.8699C323.032 46.3899 322.372 45.7899 321.352 45.0699V31.7499C321.352 29.3499 322.282 27.4899 324.142 26.1699C326.062 24.8499 328.942 24.1899 332.782 24.1899V81.0699C332.782 83.2899 331.942 85.1499 330.262 86.6499C328.582 88.0899 325.972 88.8099 322.432 88.8099V83.8599C323.212 82.8999 323.782 82.1199 324.142 81.5199L323.692 81.1599C321.832 83.6799 319.762 85.5999 317.482 86.9199C315.262 88.1799 312.442 88.8099 309.022 88.8099ZM312.352 79.0899C315.052 79.0899 317.242 78.4599 318.922 77.1999C320.662 75.8799 321.532 74.2299 321.532 72.2499V58.6599C321.532 56.7399 320.662 55.1499 318.922 53.8899C317.242 52.5699 315.022 51.9099 312.262 51.9099C309.322 51.9099 307.042 52.5399 305.422 53.7999C303.862 54.9999 303.082 56.7399 303.082 59.0199V71.7999C303.082 74.1999 303.862 76.0299 305.422 77.2899C307.042 78.4899 309.352 79.0899 312.352 79.0899ZM366.57 88.8099C361.23 88.8099 356.46 87.7899 352.26 85.7499C348.12 83.7099 344.88 80.8599 342.54 77.1999C340.2 73.5399 339.03 69.3699 339.03 64.6899V48.1299C339.03 43.4499 340.17 39.3099 342.45 35.7099C344.79 32.0499 348 29.2299 352.08 27.2499C356.16 25.2099 360.84 24.1899 366.12 24.1899C371.4 24.1899 376.08 24.9999 380.16 26.6199C384.3 28.1799 387.51 30.3999 389.79 33.2799C392.07 36.0999 393.21 39.3399 393.21 42.9999C393.21 45.2199 392.46 46.9899 390.96 48.3099C389.52 49.5699 387.57 50.1999 385.11 50.1999C383.91 50.1999 382.59 50.0199 381.15 49.6599C381.27 48.2199 381.33 46.8099 381.33 45.4299C381.33 42.2499 379.92 39.6699 377.1 37.6899C374.28 35.7099 370.62 34.7199 366.12 34.7199C361.68 34.7199 358.05 35.9799 355.23 38.4999C352.47 40.9599 351.09 44.1699 351.09 48.1299V64.6899C351.09 68.7099 352.53 71.9799 355.41 74.4999C358.29 77.0199 362.01 78.2799 366.57 78.2799C371.07 78.2799 374.73 77.2899 377.55 75.3099C380.37 73.3299 381.78 70.7799 381.78 67.6599C381.78 66.2199 381.72 64.8399 381.6 63.5199C383.1 63.2199 384.36 63.0699 385.38 63.0699C387.9 63.0699 389.91 63.7299 391.41 65.0499C392.91 66.3699 393.66 68.1699 393.66 70.4499C393.66 73.9899 392.52 77.1699 390.24 79.9899C387.96 82.7499 384.75 84.9099 380.61 86.4699C376.53 88.0299 371.85 88.8099 366.57 88.8099ZM416.174 88.8099C412.274 88.8099 408.734 88.1199 405.554 86.7399C402.434 85.2999 399.974 83.3199 398.174 80.7999C396.374 78.2799 395.474 75.4299 395.474 72.2499V59.5599C395.474 56.3199 396.344 53.3799 398.084 50.7399C399.884 48.0999 402.344 46.0299 405.464 44.5299C408.584 42.9699 412.154 42.1899 416.174 42.1899C420.194 42.1899 423.764 42.9699 426.884 44.5299C430.064 46.0299 432.524 48.0999 434.264 50.7399C436.064 53.3799 436.964 56.3199 436.964 59.5599V72.2499C436.964 75.4299 436.034 78.2799 434.174 80.7999C432.374 83.3199 429.884 85.2999 426.704 86.7399C423.584 88.1199 420.074 88.8099 416.174 88.8099ZM416.174 79.1799C419.174 79.1799 421.514 78.4899 423.194 77.1099C424.934 75.7299 425.804 73.8699 425.804 71.5299V60.0999C425.804 57.6399 424.934 55.6599 423.194 54.1599C421.514 52.5999 419.174 51.8199 416.174 51.8199C413.234 51.8199 410.894 52.5999 409.154 54.1599C407.414 55.6599 406.544 57.6399 406.544 60.0999V71.5299C406.544 73.8699 407.414 75.7299 409.154 77.1099C410.894 78.4899 413.234 79.1799 416.174 79.1799ZM466.134 51.9099C462.594 51.9099 459.714 52.8699 457.494 54.7899C455.274 56.6499 454.164 58.9899 454.164 61.8099V81.9699C454.164 84.3699 453.264 86.1099 451.464 87.1899C449.664 88.2699 446.844 88.8099 443.004 88.8099V50.8299C443.004 48.0699 443.874 45.9399 445.614 44.4399C447.414 42.9399 450.114 42.1899 453.714 42.1899V47.4999C452.814 48.5199 452.094 49.5099 451.554 50.4699L452.094 50.8299C455.874 45.0699 460.614 42.1899 466.314 42.1899C468.894 42.1899 470.844 42.8799 472.164 44.2599C473.484 45.5799 474.144 47.2599 474.144 49.2999C474.144 50.8599 473.724 52.1799 472.884 53.2599C471.264 52.3599 469.014 51.9099 466.134 51.9099ZM491.669 88.8099C488.429 88.8099 485.519 88.1199 482.939 86.7399C480.359 85.3599 478.319 83.4699 476.819 81.0699C475.319 78.6099 474.569 75.7899 474.569 72.6099V58.3899C474.569 55.2699 475.349 52.4799 476.909 50.0199C478.469 47.5599 480.629 45.6399 483.389 44.2599C486.209 42.8799 489.329 42.1899 492.749 42.1899C494.969 42.1899 497.249 42.6699 499.589 43.6299C501.989 44.5299 503.999 45.7599 505.619 47.3199L505.979 46.8699C505.679 46.3899 505.019 45.7899 503.999 45.0699V31.7499C503.999 29.3499 504.929 27.4899 506.789 26.1699C508.709 24.8499 511.589 24.1899 515.429 24.1899V81.0699C515.429 83.2899 514.589 85.1499 512.909 86.6499C511.229 88.0899 508.619 88.8099 505.079 88.8099V83.8599C505.859 82.8999 506.429 82.1199 506.789 81.5199L506.339 81.1599C504.479 83.6799 502.409 85.5999 500.129 86.9199C497.909 88.1799 495.089 88.8099 491.669 88.8099ZM494.999 79.0899C497.699 79.0899 499.889 78.4599 501.569 77.1999C503.309 75.8799 504.179 74.2299 504.179 72.2499V58.6599C504.179 56.7399 503.309 55.1499 501.569 53.8899C499.889 52.5699 497.669 51.9099 494.909 51.9099C491.969 51.9099 489.689 52.5399 488.069 53.7999C486.509 54.9999 485.729 56.7399 485.729 59.0199V71.7999C485.729 74.1999 486.509 76.0299 488.069 77.2899C489.689 78.4899 491.999 79.0899 494.999 79.0899Z" fill="black"/>
<path d="M68.5151 18C75.4618 19.2032 82.1066 21.3162 88.3208 24.2236C99.1863 40.4497 104.585 58.7507 102.591 79.8584C94.2781 86.0741 86.2138 89.8447 78.2856 92.3125C76.3226 89.6212 74.586 86.7526 73.0835 83.7451C75.9452 82.6576 78.694 81.3155 81.2915 79.75C80.6119 79.241 79.9396 78.7087 79.2827 78.1611C63.6753 85.5493 46.5124 85.5493 30.7163 78.1611C30.067 78.7087 29.3946 79.241 28.7075 79.75C31.2972 81.3078 34.0383 82.65 36.8999 83.7373C35.3973 86.7526 33.6534 89.6142 31.6977 92.3057C23.7772 89.8379 15.7209 86.0664 7.4077 79.8584C5.7088 61.6505 9.10604 43.1799 21.6401 24.2393C27.8544 21.3241 34.5072 19.2032 41.4614 18C42.3222 19.5424 43.3417 21.6173 44.0288 23.2676C51.2773 22.1571 58.5937 22.1571 65.978 23.2676C66.6652 21.6173 67.662 19.5424 68.5151 18ZM46.8335 51.6826C45.8573 50.7066 44.2746 50.7067 43.2983 51.6826L36.562 58.4189C35.5857 59.3952 35.5859 60.9778 36.562 61.9541C37.5383 62.9304 39.1208 62.9304 40.0972 61.9541L46.8335 55.2178C47.8095 54.2414 47.8097 52.6588 46.8335 51.6826ZM80.0161 51.6826C79.0398 50.7068 77.4571 50.7065 76.4809 51.6826L69.7446 58.4189C68.7685 59.3951 68.7687 60.9778 69.7446 61.9541C70.7209 62.9304 72.3035 62.9304 73.2798 61.9541L80.0161 55.2178C80.9924 54.2415 80.9924 52.6589 80.0161 51.6826ZM45.7222 44.1699C44.7459 43.1937 43.1624 43.1938 42.186 44.1699L29.2319 57.124C28.2556 58.1003 28.2556 59.6838 29.2319 60.6602C30.2082 61.6358 31.7909 61.636 32.7671 60.6602L45.7222 47.7051C46.6979 46.7289 46.6978 45.1461 45.7222 44.1699ZM78.7222 44.1699C77.7458 43.1936 76.1623 43.1936 75.186 44.1699L62.2319 57.124C61.2557 58.1003 61.2556 59.6839 62.2319 60.6602C63.2081 61.636 64.7909 61.636 65.7671 60.6602L78.7222 47.7051C79.6981 46.7289 79.6981 45.1462 78.7222 44.1699Z" fill="black"/>
</svg>
