<svg width="336" height="73" viewBox="0 0 336 73" fill="none" xmlns="http://www.w3.org/2000/svg">
<g clip-path="url(#clip0_30_2)">
<path d="M99.7517 15.1316C99.4325 12.4317 98.1376 10.3357 95.8671 8.84368C93.5966 7.35162 90.8117 6.6056 87.5123 6.6056C85.0999 6.6056 82.9891 6.99637 81.1797 7.77793C79.3881 8.55949 77.9868 9.63411 76.9757 11.0018C75.9824 12.3696 75.4857 13.9237 75.4857 15.6645C75.4857 17.121 75.8316 18.3733 76.5233 19.4213C77.2329 20.4515 78.1376 21.3131 79.2373 22.0058C80.3371 22.6807 81.4902 23.2402 82.6964 23.6843C83.9026 24.1106 85.0112 24.457 86.0223 24.7234L91.5566 26.2155C92.9758 26.5885 94.5545 27.1035 96.2928 27.7609C98.0489 28.4181 99.7251 29.315 101.322 30.4518C102.936 31.5709 104.266 33.0096 105.313 34.7681C106.359 36.5266 106.883 38.6847 106.883 41.2426C106.883 44.1912 106.111 46.8555 104.568 49.2357C103.042 51.6159 100.807 53.5077 97.8626 54.9108C94.9358 56.3141 91.3792 57.0157 87.193 57.0157C83.2905 57.0157 79.9114 56.3851 77.0556 55.1241C74.2174 53.8629 71.9823 52.1044 70.3504 49.8486C68.7362 47.5927 67.8227 44.9728 67.6099 41.9886H74.4214C74.5988 44.0491 75.2906 45.7542 76.4968 47.1043C77.7208 48.4364 79.2639 49.4311 81.1265 50.0883C83.0067 50.7278 85.029 51.0475 87.193 51.0475C89.7119 51.0475 91.9735 50.639 93.9779 49.8219C95.9823 48.987 97.5699 47.8325 98.7407 46.3582C99.9114 44.8662 100.497 43.1254 100.497 41.136C100.497 39.3242 99.9913 37.8499 98.9802 36.7131C97.969 35.5763 96.6387 34.6526 94.9891 33.9422C93.3394 33.2316 91.5566 32.61 89.6409 32.0771L82.9358 30.1587C78.6785 28.9332 75.3084 27.1835 72.8249 24.9099C70.3415 22.6363 69.0999 19.6611 69.0999 15.9842C69.0999 12.929 69.9247 10.2647 71.5744 7.99108C73.2418 5.69971 75.4768 3.92345 78.2794 2.66231C81.0999 1.38341 84.2484 0.743958 87.7251 0.743958C91.2373 0.743958 94.3593 1.37453 97.091 2.63567C99.8228 3.87905 101.987 5.58426 103.583 7.75128C105.197 9.91832 106.049 12.3784 106.138 15.1316H99.7517Z" fill="black"/>
<path d="M120.912 31.4376V56.0565H114.632V1.48999H120.912V21.5262H121.443C122.402 19.4124 123.839 17.7338 125.754 16.4904C127.688 15.2294 130.26 14.5988 133.47 14.5988C136.256 14.5988 138.694 15.1583 140.787 16.2773C142.881 17.3786 144.503 19.075 145.656 21.3663C146.827 23.6399 147.413 26.5352 147.413 30.0522V56.0565H141.134V30.4784C141.134 27.2279 140.291 24.7146 138.606 22.9383C136.938 21.1442 134.624 20.2473 131.662 20.2473C129.603 20.2473 127.758 20.6825 126.126 21.5528C124.513 22.4231 123.236 23.6932 122.296 25.3629C121.373 27.0325 120.912 29.0575 120.912 31.4376Z" fill="black"/>
<path d="M173.469 56.8826C169.638 56.8826 166.294 56.0034 163.438 54.2449C160.582 52.4864 158.365 50.0262 156.786 46.8645C155.208 43.7027 154.418 40.0081 154.418 35.7807C154.418 31.5354 155.208 27.823 156.786 24.6436C158.365 21.464 160.582 18.995 163.438 17.2366C166.294 15.4781 169.638 14.5988 173.469 14.5988C177.3 14.5988 180.644 15.4781 183.501 17.2366C186.356 18.995 188.573 21.464 190.152 24.6436C191.731 27.823 192.52 31.5354 192.52 35.7807C192.52 40.0081 191.731 43.7027 190.152 46.8645C188.573 50.0262 186.356 52.4864 183.501 54.2449C180.644 56.0034 177.3 56.8826 173.469 56.8826ZM173.496 50.1949C175.979 50.1949 178.037 49.5377 179.669 48.2233C181.301 46.9089 182.507 45.1593 183.288 42.9744C184.086 40.7897 184.484 38.3829 184.484 35.754C184.484 33.1429 184.086 30.7449 183.288 28.5602C182.507 26.3576 181.301 24.5902 179.669 23.258C178.037 21.9259 175.979 21.2598 173.496 21.2598C170.995 21.2598 168.919 21.9259 167.27 23.258C165.638 24.5902 164.422 26.3576 163.624 28.5602C162.844 30.7449 162.453 33.1429 162.453 35.754C162.453 38.3829 162.844 40.7897 163.624 42.9744C164.422 45.1593 165.638 46.9089 167.27 48.2233C168.919 49.5377 170.995 50.1949 173.496 50.1949Z" fill="black"/>
<path d="M216.368 56.8826C212.536 56.8826 209.192 56.0034 206.337 54.2449C203.48 52.4864 201.263 50.0262 199.685 46.8645C198.105 43.7027 197.316 40.0081 197.316 35.7807C197.316 31.5354 198.105 27.823 199.685 24.6436C201.263 21.464 203.48 18.995 206.337 17.2366C209.192 15.4781 212.536 14.5988 216.368 14.5988C220.2 14.5988 223.543 15.4781 226.399 17.2366C229.254 18.995 231.471 21.464 233.051 24.6436C234.629 27.823 235.419 31.5354 235.419 35.7807C235.419 40.0081 234.629 43.7027 233.051 46.8645C231.471 50.0262 229.254 52.4864 226.399 54.2449C223.543 56.0034 220.2 56.8826 216.368 56.8826ZM216.395 50.1949C218.878 50.1949 220.935 49.5377 222.567 48.2233C224.199 46.9089 225.406 45.1593 226.185 42.9744C226.984 40.7897 227.383 38.3829 227.383 35.754C227.383 33.1429 226.984 30.7449 226.185 28.5602C225.406 26.3576 224.199 24.5902 222.567 23.258C220.935 21.9259 218.878 21.2598 216.395 21.2598C213.893 21.2598 211.818 21.9259 210.168 23.258C208.536 24.5902 207.321 26.3576 206.523 28.5602C205.742 30.7449 205.352 33.1429 205.352 35.754C205.352 38.3829 205.742 40.7897 206.523 42.9744C207.321 45.1593 208.536 46.9089 210.168 48.2233C211.818 49.5377 213.893 50.1949 216.395 50.1949Z" fill="black"/>
<path d="M258.947 72.256C255.914 72.256 253.305 71.8653 251.124 71.0837C248.942 70.3199 247.124 69.3074 245.67 68.0463C244.232 66.803 243.088 65.4707 242.237 64.0497L247.24 60.5328C247.807 61.2788 248.525 62.1313 249.395 63.0905C250.264 64.0676 251.452 64.9113 252.96 65.6217C254.486 66.35 256.482 66.7141 258.947 66.7141C262.246 66.7141 264.969 65.9148 267.115 64.3162C269.261 62.7175 270.335 60.2131 270.335 56.8026V48.4898H269.802C269.341 49.2357 268.685 50.1594 267.834 51.2607C266.999 52.3443 265.794 53.3123 264.216 54.1649C262.654 54.9997 260.543 55.4172 257.883 55.4172C254.583 55.4172 251.621 54.6356 248.996 53.0725C246.388 51.5093 244.321 49.2357 242.796 46.2517C241.288 43.2675 240.534 39.644 240.534 35.381C240.534 31.189 241.27 27.5389 242.743 24.4303C244.215 21.3042 246.264 18.8885 248.889 17.1832C251.514 15.4602 254.548 14.5988 257.988 14.5988C260.649 14.5988 262.76 15.0429 264.322 15.9309C265.9 16.8014 267.106 17.7961 267.94 18.9151C268.792 20.0164 269.447 20.9222 269.909 21.6328H270.548V15.1316H276.615V57.2289C276.615 60.7459 275.816 63.6057 274.219 65.8082C272.641 68.0285 270.512 69.6538 267.834 70.6841C265.173 71.732 262.211 72.256 258.947 72.256ZM258.734 49.7687C261.252 49.7687 263.382 49.1914 265.119 48.0368C266.858 46.8823 268.18 45.2214 269.085 43.0544C269.988 40.8873 270.441 38.294 270.441 35.2744C270.441 32.3258 269.998 29.7236 269.11 27.4678C268.224 25.2119 266.912 23.4445 265.173 22.1656C263.435 20.8867 261.289 20.2473 258.734 20.2473C256.073 20.2473 253.856 20.9222 252.082 22.2722C250.326 23.6222 249.004 25.4339 248.118 27.7076C247.248 29.9812 246.814 32.5034 246.814 35.2744C246.814 38.1164 247.257 40.6298 248.144 42.8147C249.049 44.9816 250.379 46.6869 252.135 47.9302C253.91 49.1559 256.108 49.7687 258.734 49.7687Z" fill="black"/>
<path d="M292.14 1.48999V56.0565H285.861V1.48999H292.14Z" fill="black"/>
<path d="M318.529 56.9092C314.591 56.9092 311.193 56.0389 308.338 54.2981C305.5 52.5396 303.31 50.0884 301.765 46.9444C300.24 43.7827 299.478 40.1059 299.478 35.9139C299.478 31.7219 300.24 28.0273 301.765 24.8301C303.31 21.615 305.456 19.1105 308.204 17.3165C310.972 15.5047 314.201 14.5988 317.89 14.5988C320.018 14.5988 322.121 14.954 324.195 15.6646C326.271 16.375 328.161 17.5296 329.863 19.1282C331.566 20.7091 332.923 22.8051 333.935 25.4162C334.945 28.0273 335.451 31.2424 335.451 35.0612V37.7257H303.948V32.2903H329.066C329.066 29.9812 328.604 27.9207 327.682 26.109C326.777 24.2971 325.482 22.8673 323.797 21.8193C322.129 20.7712 320.161 20.2473 317.89 20.2473C315.389 20.2473 313.225 20.869 311.398 22.1124C309.588 23.3379 308.196 24.9366 307.22 26.9083C306.245 28.8799 305.756 30.9936 305.756 33.2495V36.8731C305.756 39.9637 306.289 42.5837 307.353 44.7329C308.435 46.8645 309.935 48.4898 311.85 49.6088C313.765 50.7101 315.992 51.2607 318.529 51.2607C320.179 51.2607 321.668 51.0298 322.999 50.568C324.346 50.0884 325.509 49.3779 326.484 48.4364C327.459 47.4772 328.213 46.2872 328.746 44.8662L334.813 46.5714C334.174 48.6319 333.101 50.4436 331.593 52.0068C330.085 53.5521 328.223 54.76 326.005 55.6303C323.788 56.483 321.296 56.9092 318.529 56.9092Z" fill="black"/>
<path d="M44.1951 46.4648L48.878 51.1541" stroke="black" stroke-width="5" stroke-linecap="round" stroke-linejoin="round"/>
<path d="M50.0488 28.8799C50.0488 41.8292 39.5658 52.3264 26.6341 52.3264C13.7026 52.3264 3.21948 41.8292 3.21948 28.8799C3.21948 15.9307 13.7026 5.43329 26.6341 5.43329C39.5658 5.43329 50.0488 15.9307 50.0488 28.8799Z" stroke="black" stroke-width="5"/>
<path d="M36.1462 28.8799L26.634 38.4051" stroke="black" stroke-width="5" stroke-linecap="round" stroke-linejoin="round"/>
<path d="M34.2438 18.4022L16.1707 36.5" stroke="black" stroke-width="5" stroke-linecap="round" stroke-linejoin="round"/>
</g>
<defs>
<clipPath id="clip0_30_2">
<rect width="336" height="73" fill="white"/>
</clipPath>
</defs>
</svg>
