<svg width="1048" height="333" viewBox="0 0 1048 333" fill="none" xmlns="http://www.w3.org/2000/svg">
<path fill-rule="evenodd" clip-rule="evenodd" d="M70.6577 70.6578C67.0424 70.6578 63.5751 72.094 61.0187 74.6504C58.4623 77.2069 57.0261 80.6741 57.0261 84.2894C57.0261 87.9048 58.4623 91.372 61.0187 93.9284C63.5751 96.4848 67.0424 97.921 70.6577 97.921V206.974C70.6577 214.204 73.5301 221.139 78.6429 226.252C83.7558 231.365 90.6903 234.237 97.9209 234.237H133.172L115.547 251.863C114.245 253.12 113.206 254.624 112.492 256.287C111.777 257.95 111.401 259.739 111.386 261.549C111.37 263.359 111.715 265.154 112.4 266.829C113.085 268.505 114.098 270.027 115.378 271.307C116.658 272.587 118.179 273.599 119.855 274.284C121.53 274.97 123.325 275.314 125.135 275.299C126.945 275.283 128.734 274.907 130.397 274.193C132.06 273.478 133.564 272.44 134.822 271.138L166.079 239.88L197.336 271.138C199.907 273.621 203.35 274.995 206.925 274.964C210.499 274.933 213.918 273.499 216.445 270.972C218.973 268.444 220.406 265.025 220.437 261.451C220.468 257.877 219.094 254.434 216.611 251.863L198.986 234.237H234.237C241.467 234.237 248.402 231.365 253.515 226.252C258.628 221.139 261.5 214.204 261.5 206.974V97.921C265.115 97.921 268.583 96.4848 271.139 93.9284C273.695 91.372 275.132 87.9048 275.132 84.2894C275.132 80.6741 273.695 77.2069 271.139 74.6504C268.583 72.094 265.115 70.6578 261.5 70.6578H70.6577ZM220.605 125.184C220.605 121.569 219.169 118.102 216.613 115.545C214.056 112.989 210.589 111.553 206.974 111.553C203.358 111.553 199.891 112.989 197.335 115.545C194.778 118.102 193.342 121.569 193.342 125.184V179.711C193.342 183.326 194.778 186.793 197.335 189.35C199.891 191.906 203.358 193.342 206.974 193.342C210.589 193.342 214.056 191.906 216.613 189.35C219.169 186.793 220.605 183.326 220.605 179.711V125.184ZM179.71 138.816C179.71 135.2 178.274 131.733 175.718 129.177C173.161 126.62 169.694 125.184 166.079 125.184C162.464 125.184 158.996 126.62 156.44 129.177C153.883 131.733 152.447 135.2 152.447 138.816V179.711C152.447 183.326 153.883 186.793 156.44 189.35C158.996 191.906 162.464 193.342 166.079 193.342C169.694 193.342 173.161 191.906 175.718 189.35C178.274 186.793 179.71 183.326 179.71 179.711V138.816ZM138.816 152.447C138.816 148.832 137.38 145.365 134.823 142.808C132.267 140.252 128.799 138.816 125.184 138.816C121.569 138.816 118.102 140.252 115.545 142.808C112.989 145.365 111.553 148.832 111.553 152.447V179.711C111.553 183.326 112.989 186.793 115.545 189.35C118.102 191.906 121.569 193.342 125.184 193.342C128.799 193.342 132.267 191.906 134.823 189.35C137.38 186.793 138.816 183.326 138.816 179.711V152.447Z" fill="#155EEF"/>
<path d="M410.155 139.796C409.671 134.914 407.593 131.122 403.922 128.42C400.251 125.717 395.269 124.366 388.976 124.366C384.7 124.366 381.09 124.971 378.145 126.181C375.2 127.351 372.941 128.984 371.368 131.082C369.835 133.18 369.069 135.56 369.069 138.222C368.988 140.441 369.452 142.377 370.461 144.031C371.509 145.685 372.941 147.117 374.757 148.327C376.572 149.497 378.67 150.526 381.05 151.413C383.43 152.26 385.971 152.987 388.674 153.592L399.808 156.254C405.213 157.464 410.175 159.078 414.693 161.095C419.211 163.112 423.124 165.593 426.432 168.538C429.74 171.482 432.301 174.952 434.117 178.945C435.972 182.939 436.92 187.517 436.961 192.681C436.92 200.265 434.984 206.84 431.152 212.407C427.36 217.934 421.873 222.23 414.693 225.296C407.553 228.321 398.94 229.834 388.855 229.834C378.851 229.834 370.138 228.301 362.715 225.235C355.333 222.169 349.565 217.631 345.41 211.62C341.295 205.569 339.137 198.086 338.935 189.171H364.289C364.571 193.326 365.761 196.796 367.859 199.579C369.997 202.322 372.841 204.4 376.39 205.811C379.981 207.183 384.035 207.869 388.553 207.869C392.99 207.869 396.843 207.223 400.11 205.932C403.418 204.642 405.98 202.846 407.795 200.547C409.61 198.248 410.518 195.606 410.518 192.62C410.518 189.837 409.691 187.497 408.037 185.601C406.423 183.705 404.043 182.092 400.897 180.76C397.791 179.429 393.979 178.219 389.461 177.13L375.967 173.741C365.519 171.2 357.269 167.227 351.218 161.821C345.168 156.415 342.162 149.134 342.203 139.977C342.162 132.474 344.159 125.919 348.193 120.311C352.267 114.704 357.854 110.327 364.954 107.181C372.054 104.034 380.122 102.461 389.158 102.461C398.355 102.461 406.383 104.034 413.241 107.181C420.139 110.327 425.504 114.704 429.336 120.311C433.169 125.919 435.145 132.413 435.266 139.796H410.155ZM479.877 104.155V228.079H454.1V104.155H479.877ZM500.526 228.079V135.136H526.303V228.079H500.526ZM513.475 123.155C509.643 123.155 506.355 121.885 503.612 119.343C500.909 116.762 499.558 113.676 499.558 110.085C499.558 106.535 500.909 103.49 503.612 100.948C506.355 98.3666 509.643 97.0758 513.475 97.0758C517.307 97.0758 520.575 98.3666 523.277 100.948C526.021 103.49 527.392 106.535 527.392 110.085C527.392 113.676 526.021 116.762 523.277 119.343C520.575 121.885 517.307 123.155 513.475 123.155ZM581.2 229.592C574.141 229.592 567.747 227.776 562.019 224.146C556.331 220.475 551.813 215.09 548.465 207.99C545.157 200.85 543.503 192.096 543.503 181.729C543.503 171.079 545.217 162.224 548.646 155.165C552.075 148.065 556.633 142.76 562.321 139.251C568.049 135.701 574.322 133.926 581.14 133.926C586.344 133.926 590.68 134.814 594.149 136.589C597.659 138.323 600.483 140.501 602.621 143.124C604.799 145.705 606.453 148.247 607.582 150.748H608.369V104.155H634.086V228.079H608.672V213.194H607.582C606.372 215.775 604.658 218.337 602.439 220.878C600.261 223.379 597.417 225.457 593.907 227.111C590.438 228.765 586.202 229.592 581.2 229.592ZM589.369 209.079C593.524 209.079 597.034 207.949 599.898 205.69C602.802 203.391 605.021 200.184 606.554 196.069C608.127 191.955 608.914 187.134 608.914 181.608C608.914 176.081 608.147 171.281 606.614 167.206C605.081 163.132 602.863 159.986 599.958 157.767C597.054 155.548 593.524 154.439 589.369 154.439C585.133 154.439 581.563 155.589 578.659 157.888C575.754 160.187 573.556 163.374 572.063 167.448C570.571 171.523 569.824 176.242 569.824 181.608C569.824 187.013 570.571 191.793 572.063 195.948C573.596 200.063 575.795 203.29 578.659 205.63C581.563 207.929 585.133 209.079 589.369 209.079ZM697.636 229.894C688.075 229.894 679.846 227.958 672.948 224.085C666.09 220.172 660.806 214.646 657.094 207.506C653.383 200.325 651.527 191.834 651.527 182.031C651.527 172.471 653.383 164.08 657.094 156.859C660.806 149.638 666.03 144.011 672.766 139.977C679.543 135.943 687.49 133.926 696.607 133.926C702.739 133.926 708.447 134.914 713.731 136.891C719.056 138.827 723.695 141.752 727.648 145.665C731.642 149.578 734.748 154.499 736.967 160.429C739.186 166.319 740.295 173.217 740.295 181.124V188.203H661.814V172.229H716.031C716.031 168.517 715.224 165.23 713.61 162.366C711.997 159.501 709.758 157.263 706.894 155.649C704.07 153.995 700.782 153.168 697.031 153.168C693.118 153.168 689.648 154.076 686.623 155.891C683.638 157.666 681.298 160.066 679.604 163.092C677.91 166.077 677.042 169.405 677.002 173.076V188.264C677.002 192.862 677.849 196.836 679.543 200.184C681.278 203.532 683.719 206.114 686.865 207.929C690.012 209.745 693.743 210.652 698.059 210.652C700.923 210.652 703.545 210.249 705.926 209.442C708.306 208.635 710.343 207.425 712.037 205.811C713.731 204.198 715.022 202.221 715.91 199.882L739.75 201.455C738.54 207.183 736.059 212.185 732.308 216.461C728.596 220.697 723.796 224.005 717.906 226.385C712.057 228.724 705.3 229.894 697.636 229.894ZM834.448 161.639L810.849 163.092C810.446 161.075 809.578 159.259 808.247 157.646C806.916 155.992 805.161 154.681 802.983 153.713C800.845 152.704 798.283 152.2 795.298 152.2C791.305 152.2 787.936 153.047 785.193 154.741C782.45 156.395 781.078 158.614 781.078 161.397C781.078 163.616 781.966 165.492 783.741 167.025C785.516 168.558 788.561 169.788 792.878 170.716L809.699 174.104C818.736 175.96 825.472 178.945 829.91 183.06C834.347 187.175 836.566 192.58 836.566 199.276C836.566 205.368 834.771 210.713 831.18 215.311C827.63 219.91 822.749 223.5 816.537 226.082C810.365 228.624 803.245 229.894 795.177 229.894C782.874 229.894 773.071 227.333 765.769 222.21C758.508 217.046 754.252 210.027 753.002 201.152L778.355 199.821C779.122 203.573 780.978 206.437 783.922 208.413C786.867 210.35 790.639 211.318 795.238 211.318C799.756 211.318 803.386 210.451 806.129 208.716C808.913 206.941 810.325 204.662 810.365 201.878C810.325 199.539 809.336 197.622 807.4 196.13C805.464 194.597 802.479 193.427 798.445 192.62L782.349 189.413C773.273 187.598 766.516 184.452 762.078 179.974C757.681 175.496 755.483 169.788 755.483 162.85C755.483 156.879 757.096 151.736 760.324 147.42C763.591 143.103 768.17 139.775 774.059 137.436C779.989 135.096 786.928 133.926 794.875 133.926C806.613 133.926 815.851 136.407 822.588 141.369C829.365 146.331 833.318 153.087 834.448 161.639ZM874.641 228.079H846.565L889.345 104.155H923.109L965.829 228.079H937.753L906.711 132.474H905.743L874.641 228.079ZM872.887 179.369H939.205V199.821H872.887V179.369ZM1006.95 104.155V228.079H980.745V104.155H1006.95Z" fill="#101828"/>
</svg>
