<svg width="1049" height="220" viewBox="0 0 1049 220" fill="none" xmlns="http://www.w3.org/2000/svg">
<g clip-path="url(#clip0_59_2)">
<path fill-rule="evenodd" clip-rule="evenodd" d="M80 100H28C12.536 100 0 87.464 0 72V28C0 12.536 12.536 0 28 0H72C87.464 0 100 12.536 100 28V80H160C171.046 80 180 88.9543 180 100V167.639C180 175.215 175.72 182.14 168.944 185.528L103.416 218.292C101.17 219.415 98.6923 220 96.1803 220C87.2442 220 80 212.756 80 203.82V100ZM28 20C23.5817 20 20 23.5817 20 28V72C20 76.4183 23.5817 80 28 80H80V28C80 23.5817 76.4183 20 72 20H28ZM100 100H152C156.418 100 160 103.582 160 108V165.092C160 168.103 158.309 170.859 155.625 172.224L111.625 194.591C106.303 197.296 100 193.429 100 187.459V100Z" fill="url(#paint0_linear_59_2)"/>
<path d="M272.366 96.0719V150.886C272.366 154.6 273.205 157.296 274.884 158.973C276.682 160.531 279.679 161.309 283.874 161.309H296.461V178.383H280.278C271.048 178.383 263.975 176.226 259.06 171.913C254.145 167.599 251.688 160.59 251.688 150.886V96.0719H240V79.3582H251.688V54.7368H272.366V79.3582H296.461V96.0719H272.366ZM306.723 128.421C306.723 118.477 308.761 109.671 312.837 102.003C317.032 94.3346 322.666 88.4039 329.739 84.2105C336.932 79.8973 344.843 77.7407 353.474 77.7407C361.266 77.7407 368.039 79.2982 373.793 82.4133C379.667 85.4086 384.342 89.1827 387.818 93.7356V79.3582H408.497V178.383H387.818V163.646C384.342 168.318 379.607 172.212 373.613 175.327C367.62 178.442 360.787 180 353.115 180C344.604 180 336.812 177.843 329.739 173.53C322.666 169.097 317.032 162.987 312.837 155.199C308.761 147.291 306.723 138.365 306.723 128.421ZM387.818 128.78C387.818 121.951 386.38 116.021 383.503 110.988C380.746 105.956 377.09 102.122 372.534 99.4865C367.979 96.8507 363.064 95.5327 357.79 95.5327C352.515 95.5327 347.6 96.8507 343.045 99.4865C338.49 102.003 334.774 105.777 331.897 110.809C329.14 115.721 327.761 121.592 327.761 128.421C327.761 135.25 329.14 141.241 331.897 146.393C334.774 151.545 338.49 155.498 343.045 158.254C347.72 160.89 352.635 162.208 357.79 162.208C363.064 162.208 367.979 160.89 372.534 158.254C377.09 155.618 380.746 151.784 383.503 146.752C386.38 141.6 387.818 135.61 387.818 128.78ZM444.052 66.2388C440.336 66.2388 437.219 64.9807 434.702 62.4647C432.184 59.9487 430.926 56.8336 430.926 53.1194C430.926 49.4052 432.184 46.2901 434.702 43.7741C437.219 41.258 440.336 40 444.052 40C447.648 40 450.705 41.258 453.222 43.7741C455.74 46.2901 456.999 49.4052 456.999 53.1194C456.999 56.8336 455.74 59.9487 453.222 62.4647C450.705 64.9807 447.648 66.2388 444.052 66.2388ZM454.122 79.3582V178.383H433.623V79.3582H454.122ZM499.735 45.3915V178.383H479.236V45.3915H499.735ZM518.017 128.421C518.017 118.477 520.055 109.671 524.13 102.003C528.326 94.3346 533.96 88.4039 541.033 84.2105C548.225 79.8973 556.137 77.7407 564.768 77.7407C572.56 77.7407 579.333 79.2982 585.087 82.4133C590.961 85.4086 595.636 89.1827 599.112 93.7356V79.3582H619.791V178.383H599.112V163.646C595.636 168.318 590.901 172.212 584.907 175.327C578.913 178.442 572.08 180 564.408 180C555.897 180 548.105 177.843 541.033 173.53C533.96 169.097 528.326 162.987 524.13 155.199C520.055 147.291 518.017 138.365 518.017 128.421ZM599.112 128.78C599.112 121.951 597.674 116.021 594.797 110.988C592.04 105.956 588.383 102.122 583.828 99.4865C579.273 96.8507 574.358 95.5327 569.084 95.5327C563.809 95.5327 558.894 96.8507 554.339 99.4865C549.784 102.003 546.068 105.777 543.191 110.809C540.433 115.721 539.055 121.592 539.055 128.421C539.055 135.25 540.433 141.241 543.191 146.393C546.068 151.545 549.784 155.498 554.339 158.254C559.014 160.89 563.929 162.208 569.084 162.208C574.358 162.208 579.273 160.89 583.828 158.254C588.383 155.618 592.04 151.784 594.797 146.752C597.674 141.6 599.112 135.61 599.112 128.78ZM665.415 93.7356C668.412 88.7035 672.368 84.8096 677.283 82.0539C682.318 79.1784 688.251 77.7407 695.084 77.7407V98.9474H689.87C681.838 98.9474 675.724 100.984 671.529 105.058C667.453 109.131 665.415 116.2 665.415 126.264V178.383H644.917V79.3582H665.415V93.7356ZM751.328 128.96L797 178.383H769.309L732.627 135.789V178.383H712.129V45.3915H732.627V122.67L768.59 79.3582H797L751.328 128.96Z" fill="black"/>
<path d="M900.01 109.857C900.01 115.19 898.72 120.19 896.138 124.857C893.651 129.524 889.683 133.286 884.232 136.143C878.877 139 872.088 140.429 863.864 140.429H847.081V178.714H827V79H863.864C871.61 79 878.208 80.3333 883.658 83C889.109 85.6667 893.173 89.3333 895.851 94C898.624 98.6667 900.01 103.952 900.01 109.857ZM863.003 124.286C868.55 124.286 872.661 123.048 875.339 120.571C878.017 118 879.355 114.429 879.355 109.857C879.355 100.143 873.905 95.2857 863.003 95.2857H847.081V124.286H863.003Z" fill="black" fill-opacity="0.65"/>
<path d="M934.35 111.857C936.931 107.667 940.278 104.381 944.39 102C948.598 99.619 953.379 98.4286 958.734 98.4286V119.429H953.427C947.116 119.429 942.334 120.905 939.083 123.857C935.927 126.81 934.35 131.952 934.35 139.286V178.714H914.268V99.5714H934.35V111.857Z" fill="black" fill-opacity="0.65"/>
<path d="M1007.55 180C999.896 180 993.011 178.333 986.891 175C980.771 171.571 975.942 166.762 972.404 160.571C968.961 154.381 967.24 147.238 967.24 139.143C967.24 131.048 969.009 123.905 972.547 117.714C976.181 111.524 981.105 106.762 987.321 103.429C993.537 100 1000.47 98.2857 1008.12 98.2857C1015.77 98.2857 1022.7 100 1028.92 103.429C1035.13 106.762 1040.01 111.524 1043.55 117.714C1047.18 123.905 1049 131.048 1049 139.143C1049 147.238 1047.14 154.381 1043.41 160.571C1039.77 166.762 1034.8 171.571 1028.49 175C1022.27 178.333 1015.29 180 1007.55 180ZM1007.55 162.571C1011.18 162.571 1014.57 161.714 1017.73 160C1020.98 158.19 1023.56 155.524 1025.48 152C1027.39 148.476 1028.34 144.19 1028.34 139.143C1028.34 131.619 1026.34 125.857 1022.32 121.857C1018.4 117.762 1013.57 115.714 1007.83 115.714C1002.1 115.714 997.266 117.762 993.346 121.857C989.521 125.857 987.608 131.619 987.608 139.143C987.608 146.667 989.473 152.476 993.202 156.571C997.027 160.571 1001.81 162.571 1007.55 162.571Z" fill="black" fill-opacity="0.65"/>
</g>
<defs>
<linearGradient id="paint0_linear_59_2" x1="90" y1="0" x2="90" y2="220" gradientUnits="userSpaceOnUse">
<stop stop-color="#9B99FE"/>
<stop offset="1" stop-color="#2BC8B7"/>
</linearGradient>
<clipPath id="clip0_59_2">
<rect width="1049" height="220" fill="white"/>
</clipPath>
</defs>
</svg>
