<svg width="132" height="21" viewBox="0 0 132 21" fill="none" xmlns="http://www.w3.org/2000/svg">
<g clip-path="url(#clip0_76_7)">
<path d="M18.0139 0H12.6099V13.0595H18.0139V0Z" fill="#121212"/>
<path d="M5.40443 0H0.000488281V7.43041L5.40443 13.0595V0Z" fill="#121212"/>
<path d="M5.40443 13.0596H0.000488281V20.2649H5.40443V13.0596Z" fill="#121212"/>
<path d="M12.6106 13.0596H5.40527L9.68339 18.4635H12.6106V13.0596Z" fill="#121212"/>
<path d="M23.3887 0.423584H36.836V2.4121H31.1936V17.823H29.0311V2.4121H23.3887V0.423584Z" fill="#121212"/>
<path d="M36.1641 11.4848C36.1641 10.1923 36.4126 9.0572 36.9098 8.07951C37.4235 7.10182 38.136 6.34785 39.0474 5.81758C39.9588 5.27074 41.0028 4.99731 42.1793 4.99731C43.3393 4.99731 44.3667 5.23759 45.2615 5.71815C46.1564 6.19871 46.8606 6.89469 47.3743 7.80609C47.888 8.71749 48.1614 9.78632 48.1946 11.0126C48.1946 11.1949 48.178 11.4848 48.1449 11.8826H38.3017V12.0565C38.3349 13.2994 38.716 14.2936 39.4451 15.0393C40.1743 15.785 41.1271 16.1579 42.3036 16.1579C43.215 16.1579 43.9856 15.9341 44.6153 15.4867C45.2615 15.0227 45.6924 14.3848 45.9078 13.5728H47.9709C47.7223 14.8653 47.1009 15.9259 46.1066 16.7544C45.1124 17.5664 43.8944 17.9724 42.4528 17.9724C41.1934 17.9724 40.0914 17.7072 39.1469 17.177C38.2023 16.6301 37.4649 15.8679 36.9346 14.8902C36.4209 13.8959 36.1641 12.7608 36.1641 11.4848ZM46.0818 10.1923C45.9824 9.11519 45.5764 8.27836 44.8638 7.68181C44.1678 7.08525 43.2813 6.78698 42.2042 6.78698C41.2431 6.78698 40.398 7.10182 39.6688 7.73152C38.9397 8.36122 38.5254 9.18148 38.426 10.1923H46.0818Z" fill="#121212"/>
<path d="M52.0627 13.6473C52.0958 14.4095 52.4272 15.0309 53.0569 15.5115C53.7032 15.992 54.5317 16.2323 55.5426 16.2323C56.4374 16.2323 57.1582 16.0583 57.7051 15.7103C58.2685 15.3458 58.5502 14.8735 58.5502 14.2935C58.5502 13.7964 58.4176 13.4153 58.1525 13.1501C57.8874 12.885 57.5394 12.7027 57.1085 12.6033C56.6943 12.5039 56.0977 12.4044 55.3189 12.305C54.2252 12.1724 53.3303 11.9984 52.6344 11.783C51.9384 11.5676 51.375 11.2279 50.9441 10.7639C50.5133 10.2834 50.2979 9.62884 50.2979 8.8003C50.2979 8.0546 50.505 7.39177 50.9193 6.81178C51.3501 6.2318 51.9301 5.78439 52.6592 5.46954C53.3883 5.13812 54.2086 4.97241 55.12 4.97241C56.6114 4.97241 57.8211 5.3204 58.749 6.01638C59.6936 6.71236 60.2156 7.70661 60.315 8.99915H58.2768C58.1939 8.33631 57.8708 7.78947 57.3074 7.35862C56.744 6.92778 56.0397 6.71236 55.1946 6.71236C54.3329 6.71236 53.6369 6.89464 53.1066 7.2592C52.5764 7.60719 52.3112 8.07117 52.3112 8.65116C52.3112 9.082 52.4355 9.41342 52.6841 9.64541C52.9326 9.87741 53.2475 10.0348 53.6286 10.1176C54.0263 10.2005 54.6229 10.2916 55.4183 10.3911C56.5285 10.5236 57.4399 10.7059 58.1525 10.9379C58.8816 11.1699 59.4616 11.5427 59.8924 12.0564C60.3399 12.5701 60.5636 13.2661 60.5636 14.1444C60.5636 14.9066 60.3399 15.5778 59.8924 16.1578C59.445 16.7377 58.8402 17.1852 58.0779 17.5C57.3157 17.8148 56.4705 17.9723 55.5426 17.9723C53.8855 17.9723 52.5515 17.5911 51.5407 16.8289C50.5464 16.0666 50.041 15.0061 50.0244 13.6473H52.0627Z" fill="#121212"/>
<path d="M63.7209 7.01049H61.4341V5.14626H63.7209V1.5918H65.7591V5.14626H68.9656V7.01049H65.7591V14.4923C65.7591 15.0225 65.8586 15.4037 66.0574 15.6357C66.2728 15.8511 66.6374 15.9588 67.1511 15.9588H69.3633V17.823H67.0268C65.8337 17.823 64.9803 17.5579 64.4666 17.0276C63.9695 16.4974 63.7209 15.6605 63.7209 14.5171V7.01049Z" fill="#121212"/>
<path d="M71.1118 0.423584H73.846L80.0104 14.8651L86.1002 0.423584H88.7847V17.823H86.6719V4.10233L80.9052 17.823H78.9913L73.2246 4.10233V17.823H71.1118V0.423584Z" fill="#121212"/>
<path d="M102.771 5.14624V17.823H101.006L100.733 16.1328C99.7717 17.359 98.4212 17.9722 96.6812 17.9722C95.1732 17.9722 93.9636 17.5082 93.0522 16.5802C92.1408 15.6522 91.6851 14.194 91.6851 12.2055V5.14624H93.7233V12.0812C93.7233 13.3903 94.005 14.3928 94.5684 15.0888C95.1484 15.7682 95.9687 16.1079 97.0292 16.1079C98.1892 16.1079 99.0923 15.6937 99.7385 14.8651C100.401 14.0366 100.733 12.9097 100.733 11.4846V5.14624H102.771Z" fill="#121212"/>
<path d="M110.936 17.823L117.573 0.423584H120.133L126.745 17.823H124.433L122.594 13.1252H115.013L113.173 17.823H110.936ZM115.659 11.1615H121.948L118.791 2.78494L115.659 11.1615Z" fill="#121212"/>
<path d="M128.714 0.423584H130.876V17.823H128.714V0.423584Z" fill="#121212"/>
<path d="M23.3887 0.423584H36.836V2.4121H31.1936V17.823H29.0311V2.4121H23.3887V0.423584Z" stroke="#121212" stroke-width="0.470256"/>
<path d="M36.1641 11.4848C36.1641 10.1923 36.4126 9.0572 36.9098 8.07951C37.4235 7.10182 38.136 6.34785 39.0474 5.81758C39.9588 5.27074 41.0028 4.99731 42.1793 4.99731C43.3393 4.99731 44.3667 5.23759 45.2615 5.71815C46.1564 6.19871 46.8606 6.89469 47.3743 7.80609C47.888 8.71749 48.1614 9.78632 48.1946 11.0126C48.1946 11.1949 48.178 11.4848 48.1449 11.8826H38.3017V12.0565C38.3349 13.2994 38.716 14.2936 39.4451 15.0393C40.1743 15.785 41.1271 16.1579 42.3036 16.1579C43.215 16.1579 43.9856 15.9341 44.6153 15.4867C45.2615 15.0227 45.6924 14.3848 45.9078 13.5728H47.9709C47.7223 14.8653 47.1009 15.9259 46.1066 16.7544C45.1124 17.5664 43.8944 17.9724 42.4528 17.9724C41.1934 17.9724 40.0914 17.7072 39.1469 17.177C38.2023 16.6301 37.4649 15.8679 36.9346 14.8902C36.4209 13.8959 36.1641 12.7608 36.1641 11.4848ZM46.0818 10.1923C45.9824 9.11519 45.5764 8.27836 44.8638 7.68181C44.1678 7.08525 43.2813 6.78698 42.2042 6.78698C41.2431 6.78698 40.398 7.10182 39.6688 7.73152C38.9397 8.36122 38.5254 9.18148 38.426 10.1923H46.0818Z" stroke="#121212" stroke-width="0.470256"/>
<path d="M52.0627 13.6473C52.0958 14.4095 52.4272 15.0309 53.0569 15.5115C53.7032 15.992 54.5317 16.2323 55.5426 16.2323C56.4374 16.2323 57.1582 16.0583 57.7051 15.7103C58.2685 15.3458 58.5502 14.8735 58.5502 14.2935C58.5502 13.7964 58.4176 13.4153 58.1525 13.1501C57.8874 12.885 57.5394 12.7027 57.1085 12.6033C56.6943 12.5039 56.0977 12.4044 55.3189 12.305C54.2252 12.1724 53.3303 11.9984 52.6344 11.783C51.9384 11.5676 51.375 11.2279 50.9441 10.7639C50.5133 10.2834 50.2979 9.62884 50.2979 8.8003C50.2979 8.0546 50.505 7.39177 50.9193 6.81178C51.3501 6.2318 51.9301 5.78439 52.6592 5.46954C53.3883 5.13812 54.2086 4.97241 55.12 4.97241C56.6114 4.97241 57.8211 5.3204 58.749 6.01638C59.6936 6.71236 60.2156 7.70661 60.315 8.99915H58.2768C58.1939 8.33631 57.8708 7.78947 57.3074 7.35862C56.744 6.92778 56.0397 6.71236 55.1946 6.71236C54.3329 6.71236 53.6369 6.89464 53.1066 7.2592C52.5764 7.60719 52.3112 8.07117 52.3112 8.65116C52.3112 9.082 52.4355 9.41342 52.6841 9.64541C52.9326 9.87741 53.2475 10.0348 53.6286 10.1176C54.0263 10.2005 54.6229 10.2916 55.4183 10.3911C56.5285 10.5236 57.4399 10.7059 58.1525 10.9379C58.8816 11.1699 59.4616 11.5427 59.8924 12.0564C60.3399 12.5701 60.5636 13.2661 60.5636 14.1444C60.5636 14.9066 60.3399 15.5778 59.8924 16.1578C59.445 16.7377 58.8402 17.1852 58.0779 17.5C57.3157 17.8148 56.4705 17.9723 55.5426 17.9723C53.8855 17.9723 52.5515 17.5911 51.5407 16.8289C50.5464 16.0666 50.041 15.0061 50.0244 13.6473H52.0627Z" stroke="#121212" stroke-width="0.470256"/>
<path d="M63.7209 7.01049H61.4341V5.14626H63.7209V1.5918H65.7591V5.14626H68.9656V7.01049H65.7591V14.4923C65.7591 15.0225 65.8586 15.4037 66.0574 15.6357C66.2728 15.8511 66.6374 15.9588 67.1511 15.9588H69.3633V17.823H67.0268C65.8337 17.823 64.9803 17.5579 64.4666 17.0276C63.9695 16.4974 63.7209 15.6605 63.7209 14.5171V7.01049Z" stroke="#121212" stroke-width="0.470256"/>
<path d="M71.1118 0.423584H73.846L80.0104 14.8651L86.1002 0.423584H88.7847V17.823H86.6719V4.10233L80.9052 17.823H78.9913L73.2246 4.10233V17.823H71.1118V0.423584Z" stroke="#121212" stroke-width="0.470256"/>
<path d="M102.771 5.14624V17.823H101.006L100.733 16.1328C99.7717 17.359 98.4212 17.9722 96.6812 17.9722C95.1732 17.9722 93.9636 17.5082 93.0522 16.5802C92.1408 15.6522 91.6851 14.194 91.6851 12.2055V5.14624H93.7233V12.0812C93.7233 13.3903 94.005 14.3928 94.5684 15.0888C95.1484 15.7682 95.9687 16.1079 97.0292 16.1079C98.1892 16.1079 99.0923 15.6937 99.7385 14.8651C100.401 14.0366 100.733 12.9097 100.733 11.4846V5.14624H102.771Z" stroke="#121212" stroke-width="0.470256"/>
<path d="M110.936 17.823L117.573 0.423584H120.133L126.745 17.823H124.433L122.594 13.1252H115.013L113.173 17.823H110.936ZM115.659 11.1615H121.948L118.791 2.78494L115.659 11.1615Z" stroke="#121212" stroke-width="0.470256"/>
<path d="M128.714 0.423584H130.876V17.823H128.714V0.423584Z" stroke="#121212" stroke-width="0.470256"/>
</g>
<defs>
<clipPath id="clip0_76_7">
<rect width="132" height="21" fill="white"/>
</clipPath>
</defs>
</svg>
